<?xml version="1.0" encoding="UTF-8" standalone="no"?>
<svg
   xmlns:dc="http://purl.org/dc/elements/1.1/"
   xmlns:cc="http://creativecommons.org/ns#"
   xmlns:rdf="http://www.w3.org/1999/02/22-rdf-syntax-ns#"
   xmlns:svg="http://www.w3.org/2000/svg"
   xmlns="http://www.w3.org/2000/svg"
   id="svg8"
   version="1.1"
   viewBox="0 0 297 210"
   height="210mm"
   width="297mm">
  <defs
     id="defs2">
    <marker
       orient="auto"
       refY="0.0"
       refX="0.0"
       id="marker1798"
       style="overflow:visible;">
      <path
         id="path1796"
         d="M 0.0,0.0 L 5.0,-5.0 L -12.5,0.0 L 5.0,5.0 L 0.0,0.0 z "
         style="fill-rule:evenodd;stroke:#000000;stroke-width:1pt;stroke-opacity:1;fill:#000000;fill-opacity:1"
         transform="scale(0.8) rotate(180) translate(12.5,0)" />
    </marker>
    <marker
       style="overflow:visible;"
       id="marker1532"
       refX="0.0"
       refY="0.0"
       orient="auto">
      <path
         transform="scale(0.8) rotate(180) translate(12.5,0)"
         style="fill-rule:evenodd;stroke:#000000;stroke-width:1pt;stroke-opacity:1;fill:#000000;fill-opacity:1"
         d="M 0.0,0.0 L 5.0,-5.0 L -12.5,0.0 L 5.0,5.0 L 0.0,0.0 z "
         id="path1530" />
    </marker>
    <marker
       orient="auto"
       refY="0.0"
       refX="0.0"
       id="marker1494"
       style="overflow:visible;">
      <path
         id="path1492"
         d="M 0.0,0.0 L 5.0,-5.0 L -12.5,0.0 L 5.0,5.0 L 0.0,0.0 z "
         style="fill-rule:evenodd;stroke:#000000;stroke-width:1pt;stroke-opacity:1;fill:#000000;fill-opacity:1"
         transform="scale(0.8) rotate(180) translate(12.5,0)" />
    </marker>
    <marker
       orient="auto"
       refY="0.0"
       refX="0.0"
       id="marker1484"
       style="overflow:visible;">
      <path
         id="path1482"
         d="M 0.0,0.0 L 5.0,-5.0 L -12.5,0.0 L 5.0,5.0 L 0.0,0.0 z "
         style="fill-rule:evenodd;stroke:#000000;stroke-width:1pt;stroke-opacity:1;fill:#000000;fill-opacity:1"
         transform="scale(0.8) rotate(180) translate(12.5,0)" />
    </marker>
    <marker
       orient="auto"
       refY="0.0"
       refX="0.0"
       id="marker1474"
       style="overflow:visible;">
      <path
         id="path1472"
         d="M 0.0,0.0 L 5.0,-5.0 L -12.5,0.0 L 5.0,5.0 L 0.0,0.0 z "
         style="fill-rule:evenodd;stroke:#000000;stroke-width:1pt;stroke-opacity:1;fill:#000000;fill-opacity:1"
         transform="scale(0.8) rotate(180) translate(12.5,0)" />
    </marker>
    <marker
       orient="auto"
       refY="0.0"
       refX="0.0"
       id="marker1464"
       style="overflow:visible;">
      <path
         id="path1462"
         d="M 0.0,0.0 L 5.0,-5.0 L -12.5,0.0 L 5.0,5.0 L 0.0,0.0 z "
         style="fill-rule:evenodd;stroke:#000000;stroke-width:1pt;stroke-opacity:1;fill:#000000;fill-opacity:1"
         transform="scale(0.8) rotate(180) translate(12.5,0)" />
    </marker>
    <marker
       style="overflow:visible;"
       id="marker1434"
       refX="0.0"
       refY="0.0"
       orient="auto">
      <path
         transform="scale(0.8) rotate(180) translate(12.5,0)"
         style="fill-rule:evenodd;stroke:#000000;stroke-width:1pt;stroke-opacity:1;fill:#000000;fill-opacity:1"
         d="M 0.0,0.0 L 5.0,-5.0 L -12.5,0.0 L 5.0,5.0 L 0.0,0.0 z "
         id="path1432" />
    </marker>
    <marker
       orient="auto"
       refY="0.0"
       refX="0.0"
       id="marker1406"
       style="overflow:visible;">
      <path
         id="path1404"
         d="M 0.0,0.0 L 5.0,-5.0 L -12.5,0.0 L 5.0,5.0 L 0.0,0.0 z "
         style="fill-rule:evenodd;stroke:#000000;stroke-width:1pt;stroke-opacity:1;fill:#000000;fill-opacity:1"
         transform="scale(0.8) rotate(180) translate(12.5,0)" />
    </marker>
    <marker
       style="overflow:visible;"
       id="marker1380"
       refX="0.0"
       refY="0.0"
       orient="auto">
      <path
         transform="scale(0.8) rotate(180) translate(12.5,0)"
         style="fill-rule:evenodd;stroke:#000000;stroke-width:1pt;stroke-opacity:1;fill:#000000;fill-opacity:1"
         d="M 0.0,0.0 L 5.0,-5.0 L -12.5,0.0 L 5.0,5.0 L 0.0,0.0 z "
         id="path1378" />
    </marker>
    <marker
       style="overflow:visible;"
       id="Arrow1Lend"
       refX="0.0"
       refY="0.0"
       orient="auto">
      <path
         transform="scale(0.8) rotate(180) translate(12.5,0)"
         style="fill-rule:evenodd;stroke:#000000;stroke-width:1pt;stroke-opacity:1;fill:#000000;fill-opacity:1"
         d="M 0.0,0.0 L 5.0,-5.0 L -12.5,0.0 L 5.0,5.0 L 0.0,0.0 z "
         id="path1105" />
    </marker>
  </defs>
  <metadata
     id="metadata5">
    <rdf:RDF>
      <cc:Work
         rdf:about="">
        <dc:format>image/svg+xml</dc:format>
        <dc:type
           rdf:resource="http://purl.org/dc/dcmitype/StillImage" />
        <dc:title></dc:title>
      </cc:Work>
    </rdf:RDF>
  </metadata>
  <g
     transform="translate(0,-87)"
     id="layer1">
    <g
       transform="translate(3.1292438e-7,65.026046)"
       id="g1766">
      <g
         id="g900"
         transform="translate(168.59153,-106.68611)">
        <path
           style="fill:none;fill-opacity:1;stroke:#000000;stroke-width:0.26458332;stroke-miterlimit:4;stroke-dasharray:none;stroke-opacity:1"
           d="m 0.00227603,296.86772 c 0.31708848,-0.005 0.63417695,-0.0113 0.95126543,-0.0174 0.31708844,-0.006 0.63417694,-0.0127 0.95126544,-0.0196 0.3170885,-0.007 0.634177,-0.0143 0.9512654,-0.0221 0.3170885,-0.008 0.634177,-0.0161 0.9512655,-0.025 0.3170884,-0.009 0.6341769,-0.0182 0.9512654,-0.0281 0.3170885,-0.01 0.634177,-0.0205 0.9512654,-0.0318 0.3170885,-0.0112 0.634177,-0.0231 0.9512655,-0.0358 0.3170884,-0.0127 0.6341769,-0.0261 0.9512654,-0.0403 0.3170885,-0.0143 0.634177,-0.0294 0.9512654,-0.0455 0.3170885,-0.0161 0.634177,-0.0331 0.9512655,-0.0513 0.3170884,-0.0181 0.6341766,-0.0373 0.9512656,-0.0577 0.317088,-0.0204 0.634177,-0.042 0.951265,-0.065 0.317089,-0.023 0.634177,-0.0473 0.951266,-0.0732 0.317088,-0.0259 0.634177,-0.0533 0.951265,-0.0824 0.317089,-0.0291 0.634177,-0.06 0.951266,-0.0927 0.317088,-0.0328 0.634176,-0.0675 0.951265,-0.10431 0.317088,-0.0368 0.634177,-0.0759 0.951265,-0.11728 0.317089,-0.0414 0.634177,-0.0853 0.951266,-0.13177 0.317088,-0.0465 0.634177,-0.0958 0.951265,-0.14798 0.317089,-0.0522 0.634177,-0.10747 0.951266,-0.16607 0.317088,-0.0586 0.634177,-0.12055 0.951265,-0.18623 0.317089,-0.0657 0.634177,-0.13511 0.951266,-0.20867 0.317088,-0.0736 0.634177,-0.15129 0.951265,-0.2336 0.317088,-0.0823 0.634177,-0.16923 0.951265,-0.26123 0.317089,-0.092 0.634177,-0.1891 0.951266,-0.2918 0.317088,-0.1027 0.634177,-0.21103 0.951265,-0.32552 0.317089,-0.11449 0.634177,-0.23517 0.951266,-0.36261 0.317088,-0.12743 0.634177,-0.26166 0.951265,-0.40327 0.317089,-0.14161 0.634177,-0.29065 0.951266,-0.44771 0.317088,-0.15706 0.634177,-0.32221 0.951265,-0.49605 0.317089,-0.17384 0.634177,-0.35643 0.951265,-0.54839 0.317089,-0.19196 0.634177,-0.39336 0.951266,-0.6048 0.317088,-0.21143 0.634177,-0.43297 0.951265,-0.66521 0.317089,-0.23223 0.634177,-0.47522 0.951266,-0.72951 0.317088,-0.25429 0.634177,-0.51994 0.951265,-0.79744 0.317089,-0.2775 0.634177,-0.56691 0.951266,-0.86862 0.317088,-0.30171 0.634177,-0.6158 0.951265,-0.94252 0.317089,-0.32673 0.634177,-0.66617 0.951266,-1.01845 0.317088,-0.35228 0.634176,-0.71748 0.951265,-1.09554 0.317088,-0.37806 0.634177,-0.76907 0.951265,-1.17276 0.317089,-0.4037 0.634177,-0.82017 0.951266,-1.24893 0.317088,-0.42876 0.634177,-0.8699 0.951265,-1.32271 0.317089,-0.4528 0.634177,-0.91734 0.951266,-1.39266 0.317088,-0.47532 0.634177,-0.96149 0.951265,-1.45731 0.317089,-0.49582 0.634177,-1.00135 0.951266,-1.51517 0.317088,-0.51381 0.634177,-1.03595 0.951265,-1.56478 0.317088,-0.52884 0.634177,-1.0644 0.951265,-1.60489 0.317089,-0.54048 0.634177,-1.08592 0.951266,-1.63436 0.317088,-0.54845 0.634177,-1.09992 0.951265,-1.65241 0.317089,-0.55249 0.634177,-1.10599 0.951266,-1.65848 0.317088,-0.55249 0.634177,-1.10395 0.951265,-1.6524 0.317089,-0.54845 0.634177,-1.09387 0.951266,-1.63437 0.317088,-0.5405 0.634177,-1.07604 0.951265,-1.60489 0.317089,-0.52884 0.634177,-1.05095 0.951265,-1.56478 0.317089,-0.51383 0.634177,-1.01932 0.951266,-1.51516 0.317088,-0.49585 0.634177,-0.98197 0.951265,-1.45732 0.317089,-0.47534 0.634177,-0.93984 0.951266,-1.39266 0.317088,-0.45283 0.634177,-0.89392 0.951265,-1.32271 0.317089,-0.42879 0.634177,-0.8452 0.951266,-1.24892 0.317088,-0.40373 0.634177,-0.79468 0.951265,-1.17277 0.317089,-0.37808 0.634177,-0.74323 0.951266,-1.09554 0.317088,-0.3523 0.634176,-0.69169 0.951265,-1.01845 0.317088,-0.32675 0.634177,-0.64078 0.951265,-0.94252 0.317089,-0.30173 0.634177,-0.5911 0.951266,-0.86862 0.317088,-0.27752 0.634177,-0.54313 0.951265,-0.79744 0.317089,-0.25431 0.634177,-0.49725 0.951266,-0.72951 0.317088,-0.23225 0.634177,-0.45375 0.951265,-0.66521 0.317089,-0.21146 0.634177,-0.41281 0.951266,-0.6048 0.317088,-0.19198 0.634177,-0.37453 0.951265,-0.54839 0.317088,-0.17386 0.634177,-0.33897 0.951265,-0.49605 0.317089,-0.15708 0.634177,-0.30608 0.951266,-0.4477 0.317088,-0.14163 0.634177,-0.27583 0.951265,-0.40328 0.317089,-0.12745 0.634177,-0.24811 0.951266,-0.36261 0.317088,-0.1145 0.634177,-0.22281 0.951265,-0.32552 0.317089,-0.10271 0.634177,-0.19979 0.951266,-0.29179 0.317088,-0.092 0.634177,-0.17892 0.951265,-0.26124 0.317089,-0.0823 0.634177,-0.16002 0.951265,-0.2336 0.317089,-0.0736 0.634177,-0.14298 0.951266,-0.20867 0.317088,-0.0657 0.634177,-0.12763 0.951265,-0.18623 0.317089,-0.0586 0.634177,-0.11383 0.951266,-0.16607 0.317088,-0.0522 0.634177,-0.10145 0.951265,-0.14798 0.317089,-0.0465 0.634177,-0.0904 0.951266,-0.13177 0.317088,-0.0414 0.634177,-0.0804 0.951265,-0.11727 0.317089,-0.0369 0.634177,-0.0715 0.951266,-0.10432 0.317088,-0.0328 0.634176,-0.0636 0.951265,-0.0927 0.317088,-0.0291 0.634177,-0.0565 0.951265,-0.0824 0.317089,-0.0259 0.634177,-0.0502 0.951266,-0.0732 0.317088,-0.023 0.634177,-0.0446 0.951265,-0.065 0.317089,-0.0204 0.634177,-0.0396 0.951266,-0.0577 0.317088,-0.0181 0.634177,-0.0352 0.951265,-0.0513 0.317089,-0.0161 0.634177,-0.0312 0.951266,-0.0455 0.317088,-0.0143 0.634177,-0.0277 0.951265,-0.0403 0.317088,-0.0127 0.634177,-0.0246 0.951265,-0.0358 0.317089,-0.0112 0.634177,-0.0218 0.951266,-0.0318 0.317088,-0.01 0.634177,-0.0193 0.951265,-0.0281 0.317089,-0.009 0.634177,-0.0171 0.951266,-0.025 0.317088,-0.008 0.634177,-0.0152 0.951265,-0.0221 0.317089,-0.007 0.634177,-0.0135 0.951266,-0.0196 0.317088,-0.006 0.634177,-0.0119 0.951265,-0.0174"
           title="1/(1+exp(-x))"
           id="path886" />
        <rect
           y="242.36354"
           x="0.13229166"
           height="54.504166"
           width="94.720833"
           id="rect896"
           style="fill:none;fill-opacity:1;stroke:#000000;stroke-width:0.26458332;stroke-miterlimit:4;stroke-dasharray:none;stroke-opacity:1" />
      </g>
      <ellipse
         style="fill:none;fill-opacity:1;stroke:#000000;stroke-width:0.42605463;stroke-miterlimit:4;stroke-dasharray:none;stroke-opacity:1"
         id="path902"
         cx="50"
         cy="101.97395"
         rx="9.786972"
         ry="9.786973" />
      <ellipse
         style="fill:none;fill-opacity:1;stroke:#000000;stroke-width:0.42605463;stroke-miterlimit:4;stroke-dasharray:none;stroke-opacity:1"
         id="path902-3"
         cx="50"
         cy="131.97395"
         rx="9.786972"
         ry="9.786973" />
      <ellipse
         style="fill:none;fill-opacity:1;stroke:#000000;stroke-width:0.42605463;stroke-miterlimit:4;stroke-dasharray:none;stroke-opacity:1"
         id="path902-3-6"
         cx="50"
         cy="161.97395"
         rx="9.786972"
         ry="9.786973" />
      <ellipse
         style="fill:none;fill-opacity:1;stroke:#000000;stroke-width:0.42605463;stroke-miterlimit:4;stroke-dasharray:none;stroke-opacity:1"
         id="path902-3-6-7"
         cx="50"
         cy="221.97395"
         rx="9.786972"
         ry="9.786973" />
      <path
         style="fill:none;fill-rule:evenodd;stroke:#000000;stroke-width:0.41838935;stroke-linecap:butt;stroke-linejoin:miter;stroke-miterlimit:4;stroke-dasharray:5.02067223, 5.02067223;stroke-dashoffset:0;stroke-opacity:1"
         d="m 48.591351,178.74252 0,25.27188"
         id="path949" />
      <path
         style="fill:none;fill-rule:evenodd;stroke:#000000;stroke-width:0.26458332px;stroke-linecap:butt;stroke-linejoin:miter;stroke-opacity:1;marker-end:url(#marker1532)"
         d="m 148.4098,162.77499 20.31402,0.21581"
         id="path957" />
      <g
         transform="translate(0,1.5875)"
         id="g1786">
        <ellipse
           ry="14.819734"
           rx="14.819733"
           cy="161.03006"
           cx="133.59103"
           id="path955"
           style="fill:none;fill-opacity:1;stroke:#000000;stroke-width:0.36053312;stroke-miterlimit:4;stroke-dasharray:none;stroke-dashoffset:0;stroke-opacity:1" />
        <text
           id="text961"
           y="167.97395"
           x="127.10258"
           style="font-style:normal;font-weight:normal;font-size:10.58333302px;line-height:1.25;font-family:sans-serif;letter-spacing:0px;word-spacing:0px;fill:#000000;fill-opacity:1;stroke:none;stroke-width:0.26458332"
           xml:space="preserve"><tspan
             style="font-size:19.75555611px;stroke-width:0.26458332"
             y="167.97395"
             x="127.10258"
             id="tspan959">Σ</tspan></text>
      </g>
      <path
         style="fill:none;fill-rule:evenodd;stroke:#000000;stroke-width:0.26458332px;stroke-linecap:butt;stroke-linejoin:miter;stroke-opacity:1;marker-end:url(#marker1484)"
         d="m 57.921755,107.72103 63.673915,46.19414"
         id="path963" />
      <path
         style="fill:none;fill-rule:evenodd;stroke:#000000;stroke-width:0.26458332px;stroke-linecap:butt;stroke-linejoin:miter;stroke-opacity:1;marker-end:url(#marker1474)"
         d="m 59.188824,135.34248 60.488206,22.17435"
         id="path965" />
      <path
         style="fill:none;fill-rule:evenodd;stroke:#000000;stroke-width:0.26458332px;stroke-linecap:butt;stroke-linejoin:miter;stroke-opacity:1;marker-end:url(#marker1464)"
         d="m 59.78651,162.0493 58.98549,0.45416"
         id="path967" />
      <path
         style="fill:none;fill-rule:evenodd;stroke:#000000;stroke-width:0.26458332px;stroke-linecap:butt;stroke-linejoin:miter;stroke-opacity:1;marker-end:url(#marker1494)"
         d="M 57.979696,216.30772 121.50793,171.19754"
         id="path969" />
      <ellipse
         style="fill:none;fill-opacity:1;stroke:none;stroke-width:0.42605463;stroke-miterlimit:4;stroke-dasharray:none;stroke-opacity:1"
         id="path902-5"
         cx="9.999999"
         cy="101.97395"
         rx="9.786972"
         ry="9.786973" />
      <ellipse
         style="fill:none;fill-opacity:1;stroke:none;stroke-width:0.42605463;stroke-miterlimit:4;stroke-dasharray:none;stroke-opacity:1"
         id="path902-3-3"
         cx="9.999999"
         cy="131.97395"
         rx="9.786972"
         ry="9.786973" />
      <ellipse
         style="fill:none;fill-opacity:1;stroke:none;stroke-width:0.42605463;stroke-miterlimit:4;stroke-dasharray:none;stroke-opacity:1"
         id="path902-3-6-5"
         cx="9.999999"
         cy="161.97395"
         rx="9.786972"
         ry="9.786973" />
      <ellipse
         style="fill:none;fill-opacity:1;stroke:none;stroke-width:0.42605463;stroke-miterlimit:4;stroke-dasharray:none;stroke-opacity:1"
         id="path902-3-6-7-6"
         cx="9.999999"
         cy="221.97395"
         rx="9.786972"
         ry="9.786973" />
      <path
         style="fill:none;fill-rule:evenodd;stroke:#000000;stroke-width:0.41838935;stroke-linecap:butt;stroke-linejoin:miter;stroke-miterlimit:4;stroke-dasharray:5.02067228, 5.02067228;stroke-dashoffset:0;stroke-opacity:1"
         d="m 10.000006,178.89979 0,25.27188"
         id="path949-2" />
      <text
         xml:space="preserve"
         style="font-style:normal;font-weight:normal;font-size:10.58333302px;line-height:1.25;font-family:sans-serif;letter-spacing:0px;word-spacing:0px;fill:#000000;fill-opacity:1;stroke:#000000;stroke-width:0.26458332;stroke-opacity:1"
         x="4.8274002"
         y="104.725"
         id="text1000"><tspan
           id="tspan998"
           x="4.8274002"
           y="104.725"
           style="stroke:#000000;stroke-width:0.26458332;stroke-opacity:1">x<tspan
   style="font-size:64.99999762%;baseline-shift:sub;stroke:#000000;stroke-opacity:1"
   id="tspan1004">1</tspan></tspan></text>
      <text
         xml:space="preserve"
         style="font-style:normal;font-weight:normal;font-size:10.58333302px;line-height:1.25;font-family:sans-serif;letter-spacing:0px;word-spacing:0px;fill:#000000;fill-opacity:1;stroke:#000000;stroke-width:0.26458332;stroke-opacity:1"
         x="4.8274002"
         y="134.72499"
         id="text1000-9"><tspan
           id="tspan998-1"
           x="4.8274002"
           y="134.72499"
           style="stroke:#000000;stroke-width:0.26458332;stroke-opacity:1">x<tspan
   style="font-size:64.99999762%;baseline-shift:sub;stroke:#000000;stroke-opacity:1"
   id="tspan1027">2</tspan></tspan></text>
      <text
         xml:space="preserve"
         style="font-style:normal;font-weight:normal;font-size:10.58333302px;line-height:1.25;font-family:sans-serif;letter-spacing:0px;word-spacing:0px;fill:#000000;fill-opacity:1;stroke:#000000;stroke-width:0.26458332;stroke-opacity:1"
         x="4.8274002"
         y="164.62758"
         id="text1000-9-7"><tspan
           id="tspan998-1-0"
           x="4.8274002"
           y="164.62758"
           style="stroke:#000000;stroke-width:0.26458332;stroke-opacity:1">x<tspan
   style="font-size:64.99999762%;baseline-shift:sub;stroke:#000000;stroke-opacity:1"
   id="tspan1050">3</tspan></tspan></text>
      <text
         xml:space="preserve"
         style="font-style:normal;font-weight:normal;font-size:10.58333302px;line-height:1.25;font-family:sans-serif;letter-spacing:0px;word-spacing:0px;fill:#000000;fill-opacity:1;stroke:#000000;stroke-width:0.26458332;stroke-opacity:1"
         x="4.8274002"
         y="224.72499"
         id="text1000-9-7-3"><tspan
           id="tspan998-1-0-6"
           x="4.8274002"
           y="224.72499"
           style="stroke:#000000;stroke-width:0.26458332;stroke-opacity:1">x<tspan
   style="font-size:64.99999762%;baseline-shift:sub;stroke:#000000;stroke-opacity:1"
   id="tspan1073">n</tspan></tspan></text>
      <path
         style="fill:none;fill-rule:evenodd;stroke:#000000;stroke-width:0.26458332px;stroke-linecap:butt;stroke-linejoin:miter;stroke-opacity:1;marker-end:url(#Arrow1Lend)"
         d="m 19.786971,101.97395 20.426057,0"
         id="path1094" />
      <path
         style="fill:none;fill-rule:evenodd;stroke:#000000;stroke-width:0.26458332px;stroke-linecap:butt;stroke-linejoin:miter;stroke-opacity:1;marker-end:url(#marker1380)"
         d="m 19.786971,131.97395 20.426057,0"
         id="path1096" />
      <path
         style="fill:none;fill-rule:evenodd;stroke:#000000;stroke-width:0.26458332px;stroke-linecap:butt;stroke-linejoin:miter;stroke-opacity:1;marker-end:url(#marker1406)"
         d="m 19.786971,161.97395 20.426057,0"
         id="path1098" />
      <path
         style="fill:none;fill-rule:evenodd;stroke:#000000;stroke-width:0.26458332px;stroke-linecap:butt;stroke-linejoin:miter;stroke-opacity:1;marker-end:url(#marker1434)"
         d="m 19.786971,221.97395 20.426057,0"
         id="path1100" />
      <text
         xml:space="preserve"
         style="font-style:normal;font-weight:normal;font-size:10.58333302px;line-height:1.25;font-family:sans-serif;letter-spacing:0px;word-spacing:0px;fill:#000000;fill-opacity:1;stroke:none;stroke-width:0.26458332"
         x="166.60144"
         y="205.32655"
         id="text1566"><tspan
           id="tspan1564"
           x="166.60144"
           y="205.32655"
           style="stroke-width:0.26458332">Activation function</tspan></text>
      <text
         xml:space="preserve"
         style="font-style:normal;font-weight:normal;font-size:10.58333302px;line-height:1.25;font-family:sans-serif;letter-spacing:0px;word-spacing:0px;fill:#000000;fill-opacity:1;stroke:none;stroke-width:0.26458332"
         x="44.555584"
         y="104.85728"
         id="text1642"><tspan
           id="tspan1640"
           x="44.555584"
           y="104.85728"
           style="stroke-width:0.26458332">w<tspan
   style="font-size:64.99999762%;baseline-shift:sub"
   id="tspan1644">1</tspan></tspan></text>
      <text
         xml:space="preserve"
         style="font-style:normal;font-weight:normal;font-size:10.58333302px;line-height:1.25;font-family:sans-serif;letter-spacing:0px;word-spacing:0px;fill:#000000;fill-opacity:1;stroke:none;stroke-width:0.26458332"
         x="44.555584"
         y="134.85728"
         id="text1642-5"><tspan
           id="tspan1640-9"
           x="44.555584"
           y="134.85728"
           style="stroke-width:0.26458332">w<tspan
   style="font-size:64.99999762%;baseline-shift:sub"
   id="tspan1667">2</tspan></tspan></text>
      <text
         xml:space="preserve"
         style="font-style:normal;font-weight:normal;font-size:10.58333302px;line-height:1.25;font-family:sans-serif;letter-spacing:0px;word-spacing:0px;fill:#000000;fill-opacity:1;stroke:none;stroke-width:0.26458332"
         x="44.555584"
         y="164.75987"
         id="text1642-5-2"><tspan
           id="tspan1640-9-8"
           x="44.555584"
           y="164.75987"
           style="stroke-width:0.26458332">w<tspan
   style="font-size:64.99999762%;baseline-shift:sub"
   id="tspan1713">3</tspan></tspan></text>
      <text
         xml:space="preserve"
         style="font-style:normal;font-weight:normal;font-size:10.58333302px;line-height:1.25;font-family:sans-serif;letter-spacing:0px;word-spacing:0px;fill:#000000;fill-opacity:1;stroke:none;stroke-width:0.26458332"
         x="44.555584"
         y="224.85728"
         id="text1642-5-2-7"><tspan
           id="tspan1640-9-8-3"
           x="44.555584"
           y="224.85728"
           style="stroke-width:0.26458332">w<tspan
   style="font-size:64.99999762%;baseline-shift:sub"
   id="tspan1711">n</tspan></tspan></text>
      <ellipse
         style="fill:none;fill-opacity:1;stroke:none;stroke-width:0.42605463;stroke-miterlimit:4;stroke-dasharray:none;stroke-opacity:1"
         id="path902-1"
         cx="286.99402"
         cy="161.97395"
         rx="9.786972"
         ry="9.786973" />
      <path
         id="path1788"
         d="m 263.44465,163.10319 13.83388,0.0507"
         style="fill:none;fill-rule:evenodd;stroke:#000000;stroke-width:0.26499999;stroke-linecap:butt;stroke-linejoin:miter;stroke-miterlimit:4;stroke-dasharray:none;stroke-opacity:1;marker-end:url(#marker1798)" />
      <text
         id="text4268"
         y="164.62578"
         x="283.66376"
         style="font-style:normal;font-weight:normal;font-size:11.28888893px;line-height:125%;font-family:sans-serif;letter-spacing:0px;word-spacing:0px;fill:#000000;fill-opacity:1;stroke:none;stroke-width:1px;stroke-linecap:butt;stroke-linejoin:miter;stroke-opacity:1"
         xml:space="preserve"><tspan
           y="164.62578"
           x="283.66376"
           id="tspan4270">y</tspan></text>
    </g>
  </g>
</svg>
