<?xml version="1.0" encoding="UTF-8" standalone="no"?>
<!-- Created with Inkscape (http://www.inkscape.org/) -->

<svg
   xmlns:dc="http://purl.org/dc/elements/1.1/"
   xmlns:cc="http://creativecommons.org/ns#"
   xmlns:rdf="http://www.w3.org/1999/02/22-rdf-syntax-ns#"
   xmlns:svg="http://www.w3.org/2000/svg"
   xmlns="http://www.w3.org/2000/svg"
   xmlns:sodipodi="http://sodipodi.sourceforge.net/DTD/sodipodi-0.dtd"
   xmlns:inkscape="http://www.inkscape.org/namespaces/inkscape"
   width="297mm"
   height="210mm"
   viewBox="0 0 297 210"
   version="1.1"
   id="svg8"
   inkscape:version="0.91 r13725"
   sodipodi:docname="artificial-neuron-inkscape.svg">
  <sodipodi:namedview
     id="base"
     pagecolor="#ffffff"
     bordercolor="#666666"
     borderopacity="1.0"
     inkscape:pageopacity="0.0"
     inkscape:pageshadow="2"
     inkscape:zoom="0.70710678"
     inkscape:cx="201.82099"
     inkscape:cy="420.67169"
     inkscape:document-units="mm"
     inkscape:current-layer="g1766"
     showgrid="false"
     inkscape:window-width="1920"
     inkscape:window-height="1163"
     inkscape:window-x="0"
     inkscape:window-y="326"
     inkscape:window-maximized="1"
     units="mm" />
  <defs
     id="defs2">
    <marker
       inkscape:isstock="true"
       style="overflow:visible;"
       id="marker1798"
       refX="0.0"
       refY="0.0"
       orient="auto"
       inkscape:stockid="Arrow1Lend">
      <path
         transform="scale(0.8) rotate(180) translate(12.5,0)"
         style="fill-rule:evenodd;stroke:#000000;stroke-width:1pt;stroke-opacity:1;fill:#000000;fill-opacity:1"
         d="M 0.0,0.0 L 5.0,-5.0 L -12.5,0.0 L 5.0,5.0 L 0.0,0.0 z "
         id="path1796" />
    </marker>
    <marker
       inkscape:stockid="Arrow1Lend"
       orient="auto"
       refY="0.0"
       refX="0.0"
       id="marker1532"
       style="overflow:visible;"
       inkscape:isstock="true"
       inkscape:collect="always">
      <path
         id="path1530"
         d="M 0.0,0.0 L 5.0,-5.0 L -12.5,0.0 L 5.0,5.0 L 0.0,0.0 z "
         style="fill-rule:evenodd;stroke:#000000;stroke-width:1pt;stroke-opacity:1;fill:#000000;fill-opacity:1"
         transform="scale(0.8) rotate(180) translate(12.5,0)" />
    </marker>
    <marker
       inkscape:isstock="true"
       style="overflow:visible;"
       id="marker1494"
       refX="0.0"
       refY="0.0"
       orient="auto"
       inkscape:stockid="Arrow1Lend"
       inkscape:collect="always">
      <path
         transform="scale(0.8) rotate(180) translate(12.5,0)"
         style="fill-rule:evenodd;stroke:#000000;stroke-width:1pt;stroke-opacity:1;fill:#000000;fill-opacity:1"
         d="M 0.0,0.0 L 5.0,-5.0 L -12.5,0.0 L 5.0,5.0 L 0.0,0.0 z "
         id="path1492" />
    </marker>
    <marker
       inkscape:isstock="true"
       style="overflow:visible;"
       id="marker1484"
       refX="0.0"
       refY="0.0"
       orient="auto"
       inkscape:stockid="Arrow1Lend">
      <path
         transform="scale(0.8) rotate(180) translate(12.5,0)"
         style="fill-rule:evenodd;stroke:#000000;stroke-width:1pt;stroke-opacity:1;fill:#000000;fill-opacity:1"
         d="M 0.0,0.0 L 5.0,-5.0 L -12.5,0.0 L 5.0,5.0 L 0.0,0.0 z "
         id="path1482" />
    </marker>
    <marker
       inkscape:isstock="true"
       style="overflow:visible;"
       id="marker1474"
       refX="0.0"
       refY="0.0"
       orient="auto"
       inkscape:stockid="Arrow1Lend">
      <path
         transform="scale(0.8) rotate(180) translate(12.5,0)"
         style="fill-rule:evenodd;stroke:#000000;stroke-width:1pt;stroke-opacity:1;fill:#000000;fill-opacity:1"
         d="M 0.0,0.0 L 5.0,-5.0 L -12.5,0.0 L 5.0,5.0 L 0.0,0.0 z "
         id="path1472" />
    </marker>
    <marker
       inkscape:isstock="true"
       style="overflow:visible;"
       id="marker1464"
       refX="0.0"
       refY="0.0"
       orient="auto"
       inkscape:stockid="Arrow1Lend">
      <path
         transform="scale(0.8) rotate(180) translate(12.5,0)"
         style="fill-rule:evenodd;stroke:#000000;stroke-width:1pt;stroke-opacity:1;fill:#000000;fill-opacity:1"
         d="M 0.0,0.0 L 5.0,-5.0 L -12.5,0.0 L 5.0,5.0 L 0.0,0.0 z "
         id="path1462" />
    </marker>
    <marker
       inkscape:stockid="Arrow1Lend"
       orient="auto"
       refY="0.0"
       refX="0.0"
       id="marker1434"
       style="overflow:visible;"
       inkscape:isstock="true"
       inkscape:collect="always">
      <path
         id="path1432"
         d="M 0.0,0.0 L 5.0,-5.0 L -12.5,0.0 L 5.0,5.0 L 0.0,0.0 z "
         style="fill-rule:evenodd;stroke:#000000;stroke-width:1pt;stroke-opacity:1;fill:#000000;fill-opacity:1"
         transform="scale(0.8) rotate(180) translate(12.5,0)" />
    </marker>
    <marker
       inkscape:isstock="true"
       style="overflow:visible;"
       id="marker1406"
       refX="0.0"
       refY="0.0"
       orient="auto"
       inkscape:stockid="Arrow1Lend"
       inkscape:collect="always">
      <path
         transform="scale(0.8) rotate(180) translate(12.5,0)"
         style="fill-rule:evenodd;stroke:#000000;stroke-width:1pt;stroke-opacity:1;fill:#000000;fill-opacity:1"
         d="M 0.0,0.0 L 5.0,-5.0 L -12.5,0.0 L 5.0,5.0 L 0.0,0.0 z "
         id="path1404" />
    </marker>
    <marker
       inkscape:stockid="Arrow1Lend"
       orient="auto"
       refY="0.0"
       refX="0.0"
       id="marker1380"
       style="overflow:visible;"
       inkscape:isstock="true">
      <path
         id="path1378"
         d="M 0.0,0.0 L 5.0,-5.0 L -12.5,0.0 L 5.0,5.0 L 0.0,0.0 z "
         style="fill-rule:evenodd;stroke:#000000;stroke-width:1pt;stroke-opacity:1;fill:#000000;fill-opacity:1"
         transform="scale(0.8) rotate(180) translate(12.5,0)" />
    </marker>
    <marker
       inkscape:stockid="Arrow1Lend"
       orient="auto"
       refY="0.0"
       refX="0.0"
       id="Arrow1Lend"
       style="overflow:visible;"
       inkscape:isstock="true"
       inkscape:collect="always">
      <path
         id="path1105"
         d="M 0.0,0.0 L 5.0,-5.0 L -12.5,0.0 L 5.0,5.0 L 0.0,0.0 z "
         style="fill-rule:evenodd;stroke:#000000;stroke-width:1pt;stroke-opacity:1;fill:#000000;fill-opacity:1"
         transform="scale(0.8) rotate(180) translate(12.5,0)" />
    </marker>
  </defs>
  <metadata
     id="metadata5">
    <rdf:RDF>
      <cc:Work
         rdf:about="">
        <dc:format>image/svg+xml</dc:format>
        <dc:type
           rdf:resource="http://purl.org/dc/dcmitype/StillImage" />
        <dc:title />
      </cc:Work>
    </rdf:RDF>
  </metadata>
  <g
     id="layer1"
     inkscape:groupmode="layer"
     inkscape:label="Layer 1"
     transform="translate(0,-87)">
    <g
       id="g1766"
       transform="translate(3.1292438e-7,65.026046)">
      <g
         transform="translate(168.59153,-106.68611)"
         id="g900">
        <path
           id="path886"
           title="1/(1+exp(-x))"
           d="m 0.00227603,296.86772 c 0.31708848,-0.005 0.63417695,-0.0113 0.95126543,-0.0174 0.31708844,-0.006 0.63417694,-0.0127 0.95126544,-0.0196 0.3170885,-0.007 0.634177,-0.0143 0.9512654,-0.0221 0.3170885,-0.008 0.634177,-0.0161 0.9512655,-0.025 0.3170884,-0.009 0.6341769,-0.0182 0.9512654,-0.0281 0.3170885,-0.01 0.634177,-0.0205 0.9512654,-0.0318 0.3170885,-0.0112 0.634177,-0.0231 0.9512655,-0.0358 0.3170884,-0.0127 0.6341769,-0.0261 0.9512654,-0.0403 0.3170885,-0.0143 0.634177,-0.0294 0.9512654,-0.0455 0.3170885,-0.0161 0.634177,-0.0331 0.9512655,-0.0513 0.3170884,-0.0181 0.6341766,-0.0373 0.9512656,-0.0577 0.317088,-0.0204 0.634177,-0.042 0.951265,-0.065 0.317089,-0.023 0.634177,-0.0473 0.951266,-0.0732 0.317088,-0.0259 0.634177,-0.0533 0.951265,-0.0824 0.317089,-0.0291 0.634177,-0.06 0.951266,-0.0927 0.317088,-0.0328 0.634176,-0.0675 0.951265,-0.10431 0.317088,-0.0368 0.634177,-0.0759 0.951265,-0.11728 0.317089,-0.0414 0.634177,-0.0853 0.951266,-0.13177 0.317088,-0.0465 0.634177,-0.0958 0.951265,-0.14798 0.317089,-0.0522 0.634177,-0.10747 0.951266,-0.16607 0.317088,-0.0586 0.634177,-0.12055 0.951265,-0.18623 0.317089,-0.0657 0.634177,-0.13511 0.951266,-0.20867 0.317088,-0.0736 0.634177,-0.15129 0.951265,-0.2336 0.317088,-0.0823 0.634177,-0.16923 0.951265,-0.26123 0.317089,-0.092 0.634177,-0.1891 0.951266,-0.2918 0.317088,-0.1027 0.634177,-0.21103 0.951265,-0.32552 0.317089,-0.11449 0.634177,-0.23517 0.951266,-0.36261 0.317088,-0.12743 0.634177,-0.26166 0.951265,-0.40327 0.317089,-0.14161 0.634177,-0.29065 0.951266,-0.44771 0.317088,-0.15706 0.634177,-0.32221 0.951265,-0.49605 0.317089,-0.17384 0.634177,-0.35643 0.951265,-0.54839 0.317089,-0.19196 0.634177,-0.39336 0.951266,-0.6048 0.317088,-0.21143 0.634177,-0.43297 0.951265,-0.66521 0.317089,-0.23223 0.634177,-0.47522 0.951266,-0.72951 0.317088,-0.25429 0.634177,-0.51994 0.951265,-0.79744 0.317089,-0.2775 0.634177,-0.56691 0.951266,-0.86862 0.317088,-0.30171 0.634177,-0.6158 0.951265,-0.94252 0.317089,-0.32673 0.634177,-0.66617 0.951266,-1.01845 0.317088,-0.35228 0.634176,-0.71748 0.951265,-1.09554 0.317088,-0.37806 0.634177,-0.76907 0.951265,-1.17276 0.317089,-0.4037 0.634177,-0.82017 0.951266,-1.24893 0.317088,-0.42876 0.634177,-0.8699 0.951265,-1.32271 0.317089,-0.4528 0.634177,-0.91734 0.951266,-1.39266 0.317088,-0.47532 0.634177,-0.96149 0.951265,-1.45731 0.317089,-0.49582 0.634177,-1.00135 0.951266,-1.51517 0.317088,-0.51381 0.634177,-1.03595 0.951265,-1.56478 0.317088,-0.52884 0.634177,-1.0644 0.951265,-1.60489 0.317089,-0.54048 0.634177,-1.08592 0.951266,-1.63436 0.317088,-0.54845 0.634177,-1.09992 0.951265,-1.65241 0.317089,-0.55249 0.634177,-1.10599 0.951266,-1.65848 0.317088,-0.55249 0.634177,-1.10395 0.951265,-1.6524 0.317089,-0.54845 0.634177,-1.09387 0.951266,-1.63437 0.317088,-0.5405 0.634177,-1.07604 0.951265,-1.60489 0.317089,-0.52884 0.634177,-1.05095 0.951265,-1.56478 0.317089,-0.51383 0.634177,-1.01932 0.951266,-1.51516 0.317088,-0.49585 0.634177,-0.98197 0.951265,-1.45732 0.317089,-0.47534 0.634177,-0.93984 0.951266,-1.39266 0.317088,-0.45283 0.634177,-0.89392 0.951265,-1.32271 0.317089,-0.42879 0.634177,-0.8452 0.951266,-1.24892 0.317088,-0.40373 0.634177,-0.79468 0.951265,-1.17277 0.317089,-0.37808 0.634177,-0.74323 0.951266,-1.09554 0.317088,-0.3523 0.634176,-0.69169 0.951265,-1.01845 0.317088,-0.32675 0.634177,-0.64078 0.951265,-0.94252 0.317089,-0.30173 0.634177,-0.5911 0.951266,-0.86862 0.317088,-0.27752 0.634177,-0.54313 0.951265,-0.79744 0.317089,-0.25431 0.634177,-0.49725 0.951266,-0.72951 0.317088,-0.23225 0.634177,-0.45375 0.951265,-0.66521 0.317089,-0.21146 0.634177,-0.41281 0.951266,-0.6048 0.317088,-0.19198 0.634177,-0.37453 0.951265,-0.54839 0.317088,-0.17386 0.634177,-0.33897 0.951265,-0.49605 0.317089,-0.15708 0.634177,-0.30608 0.951266,-0.4477 0.317088,-0.14163 0.634177,-0.27583 0.951265,-0.40328 0.317089,-0.12745 0.634177,-0.24811 0.951266,-0.36261 0.317088,-0.1145 0.634177,-0.22281 0.951265,-0.32552 0.317089,-0.10271 0.634177,-0.19979 0.951266,-0.29179 0.317088,-0.092 0.634177,-0.17892 0.951265,-0.26124 0.317089,-0.0823 0.634177,-0.16002 0.951265,-0.2336 0.317089,-0.0736 0.634177,-0.14298 0.951266,-0.20867 0.317088,-0.0657 0.634177,-0.12763 0.951265,-0.18623 0.317089,-0.0586 0.634177,-0.11383 0.951266,-0.16607 0.317088,-0.0522 0.634177,-0.10145 0.951265,-0.14798 0.317089,-0.0465 0.634177,-0.0904 0.951266,-0.13177 0.317088,-0.0414 0.634177,-0.0804 0.951265,-0.11727 0.317089,-0.0369 0.634177,-0.0715 0.951266,-0.10432 0.317088,-0.0328 0.634176,-0.0636 0.951265,-0.0927 0.317088,-0.0291 0.634177,-0.0565 0.951265,-0.0824 0.317089,-0.0259 0.634177,-0.0502 0.951266,-0.0732 0.317088,-0.023 0.634177,-0.0446 0.951265,-0.065 0.317089,-0.0204 0.634177,-0.0396 0.951266,-0.0577 0.317088,-0.0181 0.634177,-0.0352 0.951265,-0.0513 0.317089,-0.0161 0.634177,-0.0312 0.951266,-0.0455 0.317088,-0.0143 0.634177,-0.0277 0.951265,-0.0403 0.317088,-0.0127 0.634177,-0.0246 0.951265,-0.0358 0.317089,-0.0112 0.634177,-0.0218 0.951266,-0.0318 0.317088,-0.01 0.634177,-0.0193 0.951265,-0.0281 0.317089,-0.009 0.634177,-0.0171 0.951266,-0.025 0.317088,-0.008 0.634177,-0.0152 0.951265,-0.0221 0.317089,-0.007 0.634177,-0.0135 0.951266,-0.0196 0.317088,-0.006 0.634177,-0.0119 0.951265,-0.0174"
           style="fill:none;fill-opacity:1;stroke:#000000;stroke-width:0.26458332;stroke-miterlimit:4;stroke-dasharray:none;stroke-opacity:1"
           inkscape:connector-curvature="0" />
        <rect
           style="fill:none;fill-opacity:1;stroke:#000000;stroke-width:0.26458332;stroke-miterlimit:4;stroke-dasharray:none;stroke-opacity:1"
           id="rect896"
           width="94.720833"
           height="54.504166"
           x="0.13229166"
           y="242.36354" />
      </g>
      <ellipse
         ry="9.786973"
         rx="9.786972"
         cy="101.97395"
         cx="50"
         id="path902"
         style="fill:none;fill-opacity:1;stroke:#000000;stroke-width:0.42605463;stroke-miterlimit:4;stroke-dasharray:none;stroke-opacity:1" />
      <ellipse
         ry="9.786973"
         rx="9.786972"
         cy="131.97395"
         cx="50"
         id="path902-3"
         style="fill:none;fill-opacity:1;stroke:#000000;stroke-width:0.42605463;stroke-miterlimit:4;stroke-dasharray:none;stroke-opacity:1" />
      <ellipse
         ry="9.786973"
         rx="9.786972"
         cy="161.97395"
         cx="50"
         id="path902-3-6"
         style="fill:none;fill-opacity:1;stroke:#000000;stroke-width:0.42605463;stroke-miterlimit:4;stroke-dasharray:none;stroke-opacity:1" />
      <ellipse
         ry="9.786973"
         rx="9.786972"
         cy="221.97395"
         cx="50"
         id="path902-3-6-7"
         style="fill:none;fill-opacity:1;stroke:#000000;stroke-width:0.42605463;stroke-miterlimit:4;stroke-dasharray:none;stroke-opacity:1" />
      <path
         inkscape:connector-curvature="0"
         inkscape:connector-type="polyline"
         id="path949"
         d="m 48.591351,178.74252 0,25.27188"
         style="fill:none;fill-rule:evenodd;stroke:#000000;stroke-width:0.41838935;stroke-linecap:butt;stroke-linejoin:miter;stroke-miterlimit:4;stroke-dasharray:5.02067223, 5.02067223;stroke-dashoffset:0;stroke-opacity:1" />
      <path
         inkscape:connection-end="#g900"
         inkscape:connection-start="#path955"
         inkscape:connector-curvature="0"
         inkscape:connector-type="polyline"
         id="path957"
         d="M -3.1292438e-7,21.973954 174.30692,135.67743"
         style="fill:none;fill-rule:evenodd;stroke:#000000;stroke-width:0.26458332px;stroke-linecap:butt;stroke-linejoin:miter;stroke-opacity:1;marker-end:url(#marker1532)" />
      <g
         id="g1786"
         transform="translate(0,1.5875)">
        <ellipse
           style="fill:none;fill-opacity:1;stroke:#000000;stroke-width:0.36053312;stroke-miterlimit:4;stroke-dasharray:none;stroke-dashoffset:0;stroke-opacity:1"
           id="path955"
           cx="133.59103"
           cy="161.03006"
           rx="14.819733"
           ry="14.819734" />
        <text
           xml:space="preserve"
           style="font-style:normal;font-weight:normal;font-size:10.58333302px;line-height:1.25;font-family:sans-serif;letter-spacing:0px;word-spacing:0px;fill:#000000;fill-opacity:1;stroke:none;stroke-width:0.26458332"
           x="127.10258"
           y="167.97395"
           id="text961"><tspan
             sodipodi:role="line"
             id="tspan959"
             x="127.10258"
             y="167.97395"
             style="font-size:19.75555611px;stroke-width:0.26458332">Σ</tspan></text>
      </g>
      <path
         inkscape:connection-end="#path955"
         inkscape:connection-start="#path902"
         inkscape:connector-curvature="0"
         inkscape:connector-type="polyline"
         id="path963"
         d="m 57.921755,107.72103 63.673915,46.19414"
         style="fill:none;fill-rule:evenodd;stroke:#000000;stroke-width:0.26458332px;stroke-linecap:butt;stroke-linejoin:miter;stroke-opacity:1;marker-end:url(#marker1484)" />
      <path
         inkscape:connection-end="#path955"
         inkscape:connection-start="#path902-3"
         inkscape:connector-curvature="0"
         inkscape:connector-type="polyline"
         id="path965"
         d="m 59.188824,135.34248 60.488206,22.17435"
         style="fill:none;fill-rule:evenodd;stroke:#000000;stroke-width:0.26458332px;stroke-linecap:butt;stroke-linejoin:miter;stroke-opacity:1;marker-end:url(#marker1474)" />
      <path
         inkscape:connection-end="#path955"
         inkscape:connection-start="#path902-3-6"
         inkscape:connector-curvature="0"
         inkscape:connector-type="polyline"
         id="path967"
         d="m 59.78651,162.0493 58.98549,0.45416"
         style="fill:none;fill-rule:evenodd;stroke:#000000;stroke-width:0.26458332px;stroke-linecap:butt;stroke-linejoin:miter;stroke-opacity:1;marker-end:url(#marker1464)" />
      <path
         inkscape:connection-end="#path955"
         inkscape:connection-start="#path902-3-6-7"
         inkscape:connector-curvature="0"
         inkscape:connector-type="polyline"
         id="path969"
         d="M 57.979696,216.30772 121.50793,171.19754"
         style="fill:none;fill-rule:evenodd;stroke:#000000;stroke-width:0.26458332px;stroke-linecap:butt;stroke-linejoin:miter;stroke-opacity:1;marker-end:url(#marker1494)" />
      <ellipse
         ry="9.786973"
         rx="9.786972"
         cy="101.97395"
         cx="9.999999"
         id="path902-5"
         style="fill:none;fill-opacity:1;stroke:#000000;stroke-width:0.42605463;stroke-miterlimit:4;stroke-dasharray:none;stroke-opacity:1" />
      <ellipse
         ry="9.786973"
         rx="9.786972"
         cy="131.97395"
         cx="9.999999"
         id="path902-3-3"
         style="fill:none;fill-opacity:1;stroke:#000000;stroke-width:0.42605463;stroke-miterlimit:4;stroke-dasharray:none;stroke-opacity:1" />
      <ellipse
         ry="9.786973"
         rx="9.786972"
         cy="161.97395"
         cx="9.999999"
         id="path902-3-6-5"
         style="fill:none;fill-opacity:1;stroke:#000000;stroke-width:0.42605463;stroke-miterlimit:4;stroke-dasharray:none;stroke-opacity:1" />
      <ellipse
         ry="9.786973"
         rx="9.786972"
         cy="221.97395"
         cx="9.999999"
         id="path902-3-6-7-6"
         style="fill:none;fill-opacity:1;stroke:#000000;stroke-width:0.42605463;stroke-miterlimit:4;stroke-dasharray:none;stroke-opacity:1" />
      <path
         inkscape:connector-curvature="0"
         inkscape:connector-type="polyline"
         id="path949-2"
         d="m 10.000006,178.89979 0,25.27188"
         style="fill:none;fill-rule:evenodd;stroke:#000000;stroke-width:0.41838935;stroke-linecap:butt;stroke-linejoin:miter;stroke-miterlimit:4;stroke-dasharray:5.02067228, 5.02067228;stroke-dashoffset:0;stroke-opacity:1" />
      <text
         id="text1000"
         y="104.725"
         x="4.8274002"
         style="font-style:normal;font-weight:normal;font-size:10.58333302px;line-height:1.25;font-family:sans-serif;letter-spacing:0px;word-spacing:0px;fill:#000000;fill-opacity:1;stroke:#000000;stroke-width:0.26458332;stroke-opacity:1"
         xml:space="preserve"><tspan
           style="stroke:#000000;stroke-width:0.26458332;stroke-opacity:1"
           y="104.725"
           x="4.8274002"
           id="tspan998"
           sodipodi:role="line">x<tspan
   id="tspan1004"
   style="font-size:64.99999762%;baseline-shift:sub;stroke:#000000;stroke-opacity:1">1</tspan></tspan></text>
      <text
         id="text1000-9"
         y="134.72499"
         x="4.8274002"
         style="font-style:normal;font-weight:normal;font-size:10.58333302px;line-height:1.25;font-family:sans-serif;letter-spacing:0px;word-spacing:0px;fill:#000000;fill-opacity:1;stroke:#000000;stroke-width:0.26458332;stroke-opacity:1"
         xml:space="preserve"><tspan
           style="stroke:#000000;stroke-width:0.26458332;stroke-opacity:1"
           y="134.72499"
           x="4.8274002"
           id="tspan998-1"
           sodipodi:role="line">x<tspan
   id="tspan1027"
   style="font-size:64.99999762%;baseline-shift:sub;stroke:#000000;stroke-opacity:1">2</tspan></tspan></text>
      <text
         id="text1000-9-7"
         y="164.62758"
         x="4.8274002"
         style="font-style:normal;font-weight:normal;font-size:10.58333302px;line-height:1.25;font-family:sans-serif;letter-spacing:0px;word-spacing:0px;fill:#000000;fill-opacity:1;stroke:#000000;stroke-width:0.26458332;stroke-opacity:1"
         xml:space="preserve"><tspan
           style="stroke:#000000;stroke-width:0.26458332;stroke-opacity:1"
           y="164.62758"
           x="4.8274002"
           id="tspan998-1-0"
           sodipodi:role="line">x<tspan
   id="tspan1050"
   style="font-size:64.99999762%;baseline-shift:sub;stroke:#000000;stroke-opacity:1">3</tspan></tspan></text>
      <text
         id="text1000-9-7-3"
         y="224.72499"
         x="4.8274002"
         style="font-style:normal;font-weight:normal;font-size:10.58333302px;line-height:1.25;font-family:sans-serif;letter-spacing:0px;word-spacing:0px;fill:#000000;fill-opacity:1;stroke:#000000;stroke-width:0.26458332;stroke-opacity:1"
         xml:space="preserve"><tspan
           style="stroke:#000000;stroke-width:0.26458332;stroke-opacity:1"
           y="224.72499"
           x="4.8274002"
           id="tspan998-1-0-6"
           sodipodi:role="line">x<tspan
   id="tspan1073"
   style="font-size:64.99999762%;baseline-shift:sub;stroke:#000000;stroke-opacity:1">n</tspan></tspan></text>
      <path
         inkscape:connection-end="#path902"
         inkscape:connection-start="#path902-5"
         inkscape:connector-curvature="0"
         inkscape:connector-type="polyline"
         id="path1094"
         d="m 19.786971,101.97395 20.426057,0"
         style="fill:none;fill-rule:evenodd;stroke:#000000;stroke-width:0.26458332px;stroke-linecap:butt;stroke-linejoin:miter;stroke-opacity:1;marker-end:url(#Arrow1Lend)" />
      <path
         inkscape:connection-end="#path902-3"
         inkscape:connection-start="#path902-3-3"
         inkscape:connector-curvature="0"
         inkscape:connector-type="polyline"
         id="path1096"
         d="m 19.786971,131.97395 20.426057,0"
         style="fill:none;fill-rule:evenodd;stroke:#000000;stroke-width:0.26458332px;stroke-linecap:butt;stroke-linejoin:miter;stroke-opacity:1;marker-end:url(#marker1380)" />
      <path
         inkscape:connection-end="#path902-3-6"
         inkscape:connection-start="#path902-3-6-5"
         inkscape:connector-curvature="0"
         inkscape:connector-type="polyline"
         id="path1098"
         d="m 19.786971,161.97395 20.426057,0"
         style="fill:none;fill-rule:evenodd;stroke:#000000;stroke-width:0.26458332px;stroke-linecap:butt;stroke-linejoin:miter;stroke-opacity:1;marker-end:url(#marker1406)" />
      <path
         inkscape:connection-end="#path902-3-6-7"
         inkscape:connection-start="#path902-3-6-7-6"
         inkscape:connector-curvature="0"
         inkscape:connector-type="polyline"
         id="path1100"
         d="m 19.786971,221.97395 20.426057,0"
         style="fill:none;fill-rule:evenodd;stroke:#000000;stroke-width:0.26458332px;stroke-linecap:butt;stroke-linejoin:miter;stroke-opacity:1;marker-end:url(#marker1434)" />
      <text
         id="text1566"
         y="205.32655"
         x="166.60144"
         style="font-style:normal;font-weight:normal;font-size:10.58333302px;line-height:1.25;font-family:sans-serif;letter-spacing:0px;word-spacing:0px;fill:#000000;fill-opacity:1;stroke:none;stroke-width:0.26458332"
         xml:space="preserve"><tspan
           style="stroke-width:0.26458332"
           y="205.32655"
           x="166.60144"
           id="tspan1564"
           sodipodi:role="line">Activation function</tspan></text>
      <text
         id="text1642"
         y="104.85728"
         x="44.555584"
         style="font-style:normal;font-weight:normal;font-size:10.58333302px;line-height:1.25;font-family:sans-serif;letter-spacing:0px;word-spacing:0px;fill:#000000;fill-opacity:1;stroke:none;stroke-width:0.26458332"
         xml:space="preserve"><tspan
           style="stroke-width:0.26458332"
           y="104.85728"
           x="44.555584"
           id="tspan1640"
           sodipodi:role="line">w<tspan
   id="tspan1644"
   style="font-size:64.99999762%;baseline-shift:sub">1</tspan></tspan></text>
      <text
         id="text1642-5"
         y="134.85728"
         x="44.555584"
         style="font-style:normal;font-weight:normal;font-size:10.58333302px;line-height:1.25;font-family:sans-serif;letter-spacing:0px;word-spacing:0px;fill:#000000;fill-opacity:1;stroke:none;stroke-width:0.26458332"
         xml:space="preserve"><tspan
           style="stroke-width:0.26458332"
           y="134.85728"
           x="44.555584"
           id="tspan1640-9"
           sodipodi:role="line">w<tspan
   id="tspan1667"
   style="font-size:64.99999762%;baseline-shift:sub">2</tspan></tspan></text>
      <text
         id="text1642-5-2"
         y="164.75987"
         x="44.555584"
         style="font-style:normal;font-weight:normal;font-size:10.58333302px;line-height:1.25;font-family:sans-serif;letter-spacing:0px;word-spacing:0px;fill:#000000;fill-opacity:1;stroke:none;stroke-width:0.26458332"
         xml:space="preserve"><tspan
           style="stroke-width:0.26458332"
           y="164.75987"
           x="44.555584"
           id="tspan1640-9-8"
           sodipodi:role="line">w<tspan
   id="tspan1713"
   style="font-size:64.99999762%;baseline-shift:sub">3</tspan></tspan></text>
      <text
         id="text1642-5-2-7"
         y="224.85728"
         x="44.555584"
         style="font-style:normal;font-weight:normal;font-size:10.58333302px;line-height:1.25;font-family:sans-serif;letter-spacing:0px;word-spacing:0px;fill:#000000;fill-opacity:1;stroke:none;stroke-width:0.26458332"
         xml:space="preserve"><tspan
           style="stroke-width:0.26458332"
           y="224.85728"
           x="44.555584"
           id="tspan1640-9-8-3"
           sodipodi:role="line">w<tspan
   id="tspan1711"
   style="font-size:64.99999762%;baseline-shift:sub">n</tspan></tspan></text>
      <ellipse
         ry="9.786973"
         rx="9.786972"
         cy="163.18954"
         cx="286.99402"
         id="path902-1"
         style="fill:none;fill-opacity:1;stroke:#000000;stroke-width:0.42605463;stroke-miterlimit:4;stroke-dasharray:none;stroke-opacity:1" />
      <path
         style="fill:none;fill-rule:evenodd;stroke:#000000;stroke-width:0.26499999;stroke-linecap:butt;stroke-linejoin:miter;stroke-miterlimit:4;stroke-dasharray:none;stroke-opacity:1;marker-end:url(#marker1798)"
         d="m 263.44465,163.10319 13.76262,0.0505"
         id="path1788"
         inkscape:connector-type="polyline"
         inkscape:connector-curvature="0"
         inkscape:connection-start="#g900"
         inkscape:connection-end="#path902-1" />
      <text
         xml:space="preserve"
         style="font-style:normal;font-weight:normal;font-size:11.28888893px;line-height:125%;font-family:sans-serif;letter-spacing:0px;word-spacing:0px;fill:#000000;fill-opacity:1;stroke:none;stroke-width:1px;stroke-linecap:butt;stroke-linejoin:miter;stroke-opacity:1"
         x="283.66376"
         y="164.62578"
         id="text4268"
         sodipodi:linespacing="125%"><tspan
           sodipodi:role="line"
           id="tspan4270"
           x="283.66376"
           y="164.62578">y</tspan></text>
    </g>
  </g>
</svg>
