<?xml version="1.0" encoding="UTF-8" standalone="no"?>
<svg width="204.964mm" height="127mm"
 xmlns="http://www.w3.org/2000/svg" xmlns:xlink="http://www.w3.org/1999/xlink"  version="1.2" baseProfile="tiny">
<title>Qt SVG Document</title>
<desc>Generated with Qt</desc>
<defs>
</defs>
<g fill="none" stroke="black" stroke-width="1" fill-rule="evenodd" stroke-linecap="square" stroke-linejoin="bevel" >

<g fill="none" stroke="#000000" stroke-opacity="1" stroke-width="1" stroke-linecap="square" stroke-linejoin="bevel" transform="matrix(1,0,0,1,0,0)"
font-family="Cantarell" font-size="11" font-weight="400" font-style="normal" 
>
</g>

<g fill="none" stroke="#000000" stroke-opacity="1" stroke-width="1" stroke-linecap="square" stroke-linejoin="bevel" transform="matrix(1,0,0,1,0,0)"
font-family="Cantarell" font-size="11" font-weight="400" font-style="normal" 
>
</g>

<g fill="none" stroke="#000000" stroke-opacity="1" stroke-width="1" stroke-linecap="square" stroke-linejoin="bevel" transform="matrix(2,0,0,2,-0.0032,360)"
font-family="Cantarell" font-size="11" font-weight="400" font-style="normal" 
>
</g>

<g fill="#ffffff" fill-opacity="1" stroke="none" transform="matrix(2,0,0,2,-0.0032,360)"
font-family="Cantarell" font-size="11" font-weight="400" font-style="normal" 
>
<rect x="0.0016" y="-180" width="290.498" height="180"/>
</g>

<g fill="none" stroke="#000000" stroke-opacity="1" stroke-width="1" stroke-linecap="square" stroke-linejoin="bevel" transform="matrix(2,0,0,2,-0.0032,360)"
font-family="Cantarell" font-size="11" font-weight="400" font-style="normal" 
>
</g>

<g fill="none" stroke="#000000" stroke-opacity="1" stroke-width="1" stroke-linecap="square" stroke-linejoin="bevel" transform="matrix(2,0,0,2,-0.0032,360)"
font-family="Cantarell" font-size="11" font-weight="400" font-style="normal" 
>
</g>

<g fill="none" stroke="#000000" stroke-opacity="1" stroke-width="1" stroke-linecap="square" stroke-linejoin="bevel" transform="matrix(2,0,0,2,-0.0032,360)"
font-family="Cantarell" font-size="11" font-weight="400" font-style="normal" 
>
</g>

<g fill="none" stroke="#000000" stroke-opacity="1" stroke-width="1" stroke-linecap="square" stroke-linejoin="bevel" transform="matrix(2,0,0,2,-0.0032,360)"
font-family="Cantarell" font-size="11" font-weight="400" font-style="normal" 
>
</g>

<g fill="none" stroke="#008000" stroke-opacity="1" stroke-width="1" stroke-linecap="square" stroke-linejoin="round" transform="matrix(2,0,0,2,-0.0032,360)"
font-family="Cantarell" font-size="11" font-weight="400" font-style="normal" 
>
<rect x="112" y="-107.5" width="96.9992" height="35"/>
</g>

<g fill="none" stroke="#000000" stroke-opacity="1" stroke-width="1" stroke-linecap="square" stroke-linejoin="bevel" transform="matrix(2,0,0,2,-0.0032,360)"
font-family="Cantarell" font-size="11" font-weight="400" font-style="normal" 
>
</g>

<g fill="none" stroke="#000000" stroke-opacity="1" stroke-width="1" stroke-linecap="square" stroke-linejoin="bevel" transform="matrix(2,0,0,2,239.825,167)"
font-family="Cantarell" font-size="11" font-weight="400" font-style="normal" 
>
</g>

<g fill="none" stroke="#008000" stroke-opacity="1" stroke-width="1" stroke-linecap="square" stroke-linejoin="bevel" transform="matrix(2,0,0,2,239.825,167)"
font-family="sans" font-size="11" font-weight="100" font-style="normal" 
>
</g>

<g fill="#008000" fill-opacity="1" stroke="#008000" stroke-opacity="1" stroke-width="1" stroke-linecap="square" stroke-linejoin="round" transform="matrix(2,0,0,2,239.825,167)"
font-family="sans" font-size="11" font-weight="100" font-style="normal" 
>
<path vector-effect="none" fill-rule="nonzero" d="M1.76562,1.98438 L2.51562,1.98438 L4.75,7.92188 L6.98438,1.98438 L7.71875,1.98438 L7.71875,10 L7.17188,10 L7.17188,2.95312 L5.10938,8.45312 L4.375,8.45312 L2.3125,2.95312 L2.3125,10 L1.76562,10 L1.76562,1.98438 M15.4219,6.75 L15.4219,7.0625 L10.8594,7.0625 C10.8594,8.02083 11.0469,8.69792 11.4219,9.09375 C11.8385,9.52083 12.4531,9.73438 13.2656,9.73438 C13.4844,9.73438 13.7708,9.6875 14.125,9.59375 C14.4792,9.5 14.8333,9.35938 15.1875,9.17188 L15.1875,9.6875 C14.8333,9.84375 14.4714,9.96094 14.1016,10.0391 C13.7318,10.1172 13.4375,10.1562 13.2188,10.1562 C12.2917,10.1562 11.5938,9.90625 11.125,9.40625 C10.6146,8.875 10.3594,8.09375 10.3594,7.0625 C10.3594,5.98958 10.5885,5.1875 11.0469,4.65625 C11.526,4.11458 12.1927,3.84375 13.0469,3.84375 C13.8281,3.84375 14.4219,4.10417 14.8281,4.625 C15.224,5.16667 15.4219,5.875 15.4219,6.75 M14.9219,6.64062 C14.9219,5.79688 14.7292,5.18229 14.3438,4.79688 C14.0312,4.45312 13.599,4.28125 13.0469,4.28125 C12.4531,4.28125 11.9531,4.45833 11.5469,4.8125 C11.1719,5.14583 10.9479,5.75521 10.875,6.64062 L14.9219,6.64062 M21.8281,5.29688 C22.0156,4.80729 22.3073,4.44271 22.7031,4.20312 C23.0885,3.96354 23.5417,3.84375 24.0625,3.84375 C24.5833,3.84375 25,4.02604 25.3125,4.39062 C25.6354,4.75521 25.7969,5.41667 25.7969,6.375 L25.7969,10 L25.3125,10 L25.3125,6.40625 C25.3125,5.57292 25.1979,5.01042 24.9688,4.71875 C24.7396,4.42708 24.4323,4.28125 24.0469,4.28125 C23.4948,4.28125 23.0104,4.44792 22.5938,4.78125 C22.125,5.15625 21.8906,5.76042 21.8906,6.59375 L21.8906,10 L21.4062,10 L21.4062,6.40625 C21.4062,5.60417 21.2943,5.04948 21.0703,4.74219 C20.8464,4.4349 20.5365,4.28125 20.1406,4.28125 C19.5885,4.28125 19.1042,4.45312 18.6875,4.79688 C18.2188,5.16146 17.9844,5.76042 17.9844,6.59375 L17.9844,10 L17.5,10 L17.5,3.98438 L17.9844,3.98438 L17.9844,5.10938 C18.1615,4.71354 18.4375,4.40104 18.8125,4.17188 C19.1771,3.95312 19.6302,3.84375 20.1719,3.84375 C20.526,3.84375 20.8646,3.95833 21.1875,4.1875 C21.4375,4.375 21.651,4.74479 21.8281,5.29688 M32.7812,2.39062 L32.7812,2.89062 C32.4271,2.71354 32.0365,2.55729 31.6094,2.42188 C31.3281,2.32812 30.974,2.28125 30.5469,2.28125 C29.9219,2.27083 29.4115,2.40625 29.0156,2.6875 C28.6615,2.95833 28.4844,3.41667 28.4844,4.0625 C28.4844,4.45833 28.6198,4.77083 28.8906,5 C29.1823,5.25 29.6198,5.44792 30.2031,5.59375 L30.8438,5.76562 C31.4167,5.92188 31.8542,6.09896 32.1562,6.29688 C32.7396,6.70312 33.0312,7.20312 33.0312,7.79688 C33.0312,8.67188 32.776,9.27604 32.2656,9.60938 C31.7135,9.97396 31.1406,10.1562 30.5469,10.1562 C29.9427,10.1562 29.3958,10.0729 28.9062,9.90625 C28.6042,9.78125 28.2865,9.60938 27.9531,9.39062 L27.9531,8.875 C28.4531,9.16667 28.8021,9.35417 29,9.4375 C29.4479,9.625 29.8646,9.71875 30.25,9.71875 C30.9062,9.71875 31.4531,9.57292 31.8906,9.28125 C32.2969,9.01042 32.5,8.53125 32.5,7.84375 C32.5,7.44792 32.375,7.13542 32.125,6.90625 C31.7604,6.57292 31.2917,6.33333 30.7188,6.1875 L30.0625,6.03125 C29.5521,5.90625 29.1146,5.73438 28.75,5.51562 C28.2083,5.17188 27.9375,4.70312 27.9375,4.10938 C27.9375,3.35938 28.1615,2.78646 28.6094,2.39062 C29.0156,2.02604 29.6458,1.83854 30.5,1.82812 C30.9896,1.82812 31.3698,1.875 31.6406,1.96875 C32.3177,2.1875 32.6979,2.32812 32.7812,2.39062 M39.8594,6.75 L39.8594,7.0625 L35.2969,7.0625 C35.2969,8.02083 35.4844,8.69792 35.8594,9.09375 C36.276,9.52083 36.8906,9.73438 37.7031,9.73438 C37.9219,9.73438 38.2083,9.6875 38.5625,9.59375 C38.9167,9.5 39.2708,9.35938 39.625,9.17188 L39.625,9.6875 C39.2708,9.84375 38.9089,9.96094 38.5391,10.0391 C38.1693,10.1172 37.875,10.1562 37.6562,10.1562 C36.7292,10.1562 36.0312,9.90625 35.5625,9.40625 C35.0521,8.875 34.7969,8.09375 34.7969,7.0625 C34.7969,5.98958 35.026,5.1875 35.4844,4.65625 C35.9635,4.11458 36.6302,3.84375 37.4844,3.84375 C38.2656,3.84375 38.8594,4.10417 39.2656,4.625 C39.6615,5.16667 39.8594,5.875 39.8594,6.75 M39.3594,6.64062 C39.3594,5.79688 39.1667,5.18229 38.7812,4.79688 C38.4688,4.45312 38.0365,4.28125 37.4844,4.28125 C36.8906,4.28125 36.3906,4.45833 35.9844,4.8125 C35.6094,5.14583 35.3854,5.75521 35.3125,6.64062 L39.3594,6.64062 M42.7031,4.90625 C42.2865,5.32292 42.0781,6.02083 42.0781,7 C42.0781,7.97917 42.2865,8.67708 42.7031,9.09375 C43.1198,9.51042 43.5573,9.71875 44.0156,9.71875 C44.4635,9.71875 44.8958,9.51042 45.3125,9.09375 C45.7188,8.67708 45.9219,7.97917 45.9219,7 C45.9219,6.02083 45.7188,5.32292 45.3125,4.90625 C44.8958,4.48958 44.4635,4.28125 44.0156,4.28125 C43.5573,4.28125 43.1198,4.48958 42.7031,4.90625 M45.9375,8.64062 C45.7083,9.16146 45.4583,9.51562 45.1875,9.70312 C44.7917,10.0052 44.4115,10.1562 44.0469,10.1562 C43.3385,10.1562 42.7474,9.86719 42.2734,9.28906 C41.7995,8.71094 41.5625,7.94792 41.5625,7 C41.5625,6.05208 41.7995,5.28906 42.2734,4.71094 C42.7474,4.13281 43.3385,3.84375 44.0469,3.84375 C44.4115,3.84375 44.7917,3.98958 45.1875,4.28125 C45.4583,4.47917 45.7083,4.83854 45.9375,5.35938 L45.9375,3.98438 L46.4062,3.98438 L46.4062,12.2812 L45.9375,12.2812 L45.9375,8.64062 M48.8438,7.60938 L48.8438,3.98438 L49.3281,3.98438 L49.3281,7.57812 C49.3281,8.35938 49.4531,8.90885 49.7031,9.22656 C49.9531,9.54427 50.3229,9.70312 50.8125,9.70312 C51.3854,9.70312 51.875,9.53125 52.2812,9.1875 C52.6875,8.84375 52.8906,8.24479 52.8906,7.39062 L52.8906,3.98438 L53.375,3.98438 L53.375,10 L52.8906,10 L52.8906,8.875 C52.7135,9.23958 52.4792,9.51562 52.1875,9.70312 C51.7708,9.99479 51.3073,10.1406 50.7969,10.1406 C50.2031,10.1406 49.7292,9.9375 49.375,9.53125 C49.0208,9.13542 48.8438,8.49479 48.8438,7.60938 M60.5625,6.75 L60.5625,7.0625 L56,7.0625 C56,8.02083 56.1875,8.69792 56.5625,9.09375 C56.9792,9.52083 57.5938,9.73438 58.4062,9.73438 C58.625,9.73438 58.9115,9.6875 59.2656,9.59375 C59.6198,9.5 59.974,9.35938 60.3281,9.17188 L60.3281,9.6875 C59.974,9.84375 59.612,9.96094 59.2422,10.0391 C58.8724,10.1172 58.5781,10.1562 58.3594,10.1562 C57.4323,10.1562 56.7344,9.90625 56.2656,9.40625 C55.7552,8.875 55.5,8.09375 55.5,7.0625 C55.5,5.98958 55.7292,5.1875 56.1875,4.65625 C56.6667,4.11458 57.3333,3.84375 58.1875,3.84375 C58.9688,3.84375 59.5625,4.10417 59.9688,4.625 C60.3646,5.16667 60.5625,5.875 60.5625,6.75 M60.0625,6.64062 C60.0625,5.79688 59.8698,5.18229 59.4844,4.79688 C59.1719,4.45312 58.7396,4.28125 58.1875,4.28125 C57.5938,4.28125 57.0938,4.45833 56.6875,4.8125 C56.3125,5.14583 56.0885,5.75521 56.0156,6.64062 L60.0625,6.64062 M67.1875,6.375 L67.1875,10 L66.6875,10 L66.6875,6.40625 C66.6875,5.625 66.5625,5.07552 66.3125,4.75781 C66.0625,4.4401 65.6927,4.28125 65.2031,4.28125 C64.6302,4.28125 64.1458,4.45312 63.75,4.79688 C63.3333,5.14062 63.125,5.73958 63.125,6.59375 L63.125,10 L62.6406,10 L62.6406,3.98438 L63.125,3.98438 L63.125,5.10938 C63.3021,4.74479 63.5365,4.46875 63.8281,4.28125 C64.2448,3.98958 64.7083,3.84375 65.2188,3.84375 C65.8229,3.84375 66.3021,4.04688 66.6562,4.45312 C67.0104,4.84896 67.1875,5.48958 67.1875,6.375 M73.7188,4.28125 L73.7188,4.79688 C73.4271,4.61979 73.1823,4.5 72.9844,4.4375 C72.651,4.33333 72.3333,4.28125 72.0312,4.28125 C71.1667,4.28125 70.5469,4.5026 70.1719,4.94531 C69.7969,5.38802 69.6094,6.07292 69.6094,7 C69.6094,7.9375 69.7969,8.6276 70.1719,9.07031 C70.5469,9.51302 71.1667,9.73438 72.0312,9.73438 C72.3229,9.73438 72.6042,9.69271 72.875,9.60938 C73.1667,9.53646 73.4479,9.42188 73.7188,9.26562 L73.7188,9.76562 C73.4479,9.90104 73.1667,10 72.875,10.0625 C72.5729,10.125 72.276,10.1562 71.9844,10.1562 C71.1094,10.1562 70.4115,9.91667 69.8906,9.4375 C69.3698,8.95833 69.1094,8.14323 69.1094,6.99219 C69.1094,5.84115 69.3698,5.02604 69.8906,4.54688 C70.4115,4.07812 71.1094,3.84375 71.9844,3.84375 C72.276,3.84375 72.5833,3.88542 72.9062,3.96875 C73.2292,4.04167 73.5,4.14583 73.7188,4.28125 M80.3438,6.75 L80.3438,7.0625 L75.7812,7.0625 C75.7812,8.02083 75.9688,8.69792 76.3438,9.09375 C76.7604,9.52083 77.375,9.73438 78.1875,9.73438 C78.4062,9.73438 78.6927,9.6875 79.0469,9.59375 C79.401,9.5 79.7552,9.35938 80.1094,9.17188 L80.1094,9.6875 C79.7552,9.84375 79.3932,9.96094 79.0234,10.0391 C78.6536,10.1172 78.3594,10.1562 78.1406,10.1562 C77.2135,10.1562 76.5156,9.90625 76.0469,9.40625 C75.5365,8.875 75.2812,8.09375 75.2812,7.0625 C75.2812,5.98958 75.5104,5.1875 75.9688,4.65625 C76.4479,4.11458 77.1146,3.84375 77.9688,3.84375 C78.75,3.84375 79.3438,4.10417 79.75,4.625 C80.1458,5.16667 80.3438,5.875 80.3438,6.75 M79.8438,6.64062 C79.8438,5.79688 79.651,5.18229 79.2656,4.79688 C78.9531,4.45312 78.5208,4.28125 77.9688,4.28125 C77.375,4.28125 76.875,4.45833 76.4688,4.8125 C76.0938,5.14583 75.8698,5.75521 75.7969,6.64062 L79.8438,6.64062"/>
</g>

<g fill="none" stroke="#008000" stroke-opacity="1" stroke-width="1" stroke-linecap="square" stroke-linejoin="bevel" transform="matrix(2,0,0,2,239.825,167)"
font-family="sans" font-size="11" font-weight="100" font-style="normal" 
>
</g>

<g fill="none" stroke="#000000" stroke-opacity="1" stroke-width="1" stroke-linecap="square" stroke-linejoin="bevel" transform="matrix(2,0,0,2,239.825,167)"
font-family="Cantarell" font-size="11" font-weight="400" font-style="normal" 
>
</g>

<g fill="none" stroke="#000000" stroke-opacity="1" stroke-width="1" stroke-linecap="square" stroke-linejoin="bevel" transform="matrix(2,0,0,2,-0.0032,360)"
font-family="Cantarell" font-size="11" font-weight="400" font-style="normal" 
>
</g>

<g fill="none" stroke="#000000" stroke-opacity="1" stroke-width="1" stroke-linecap="square" stroke-linejoin="bevel" transform="matrix(2,0,0,2,-0.0032,360)"
font-family="Cantarell" font-size="11" font-weight="400" font-style="normal" 
>
</g>

<g fill="none" stroke="#000000" stroke-opacity="1" stroke-width="1" stroke-linecap="square" stroke-linejoin="bevel" transform="matrix(2,0,0,2,-0.0032,360)"
font-family="Cantarell" font-size="11" font-weight="400" font-style="normal" 
>
</g>

<g fill="none" stroke="#008000" stroke-opacity="1" stroke-width="1" stroke-linecap="square" stroke-linejoin="round" transform="matrix(2,0,0,2,-0.0032,360)"
font-family="Cantarell" font-size="11" font-weight="400" font-style="normal" 
>
<rect x="0.5016" y="-35.5" width="165.997" height="35"/>
</g>

<g fill="none" stroke="#000000" stroke-opacity="1" stroke-width="1" stroke-linecap="square" stroke-linejoin="bevel" transform="matrix(2,0,0,2,-0.0032,360)"
font-family="Cantarell" font-size="11" font-weight="400" font-style="normal" 
>
</g>

<g fill="none" stroke="#000000" stroke-opacity="1" stroke-width="1" stroke-linecap="square" stroke-linejoin="bevel" transform="matrix(2,0,0,2,14.1062,311)"
font-family="Cantarell" font-size="11" font-weight="400" font-style="normal" 
>
</g>

<g fill="none" stroke="#008000" stroke-opacity="1" stroke-width="1" stroke-linecap="square" stroke-linejoin="bevel" transform="matrix(2,0,0,2,14.1062,311)"
font-family="sans" font-size="11" font-weight="100" font-style="normal" 
>
</g>

<g fill="#008000" fill-opacity="1" stroke="#008000" stroke-opacity="1" stroke-width="1" stroke-linecap="square" stroke-linejoin="round" transform="matrix(2,0,0,2,14.1062,311)"
font-family="sans" font-size="11" font-weight="100" font-style="normal" 
>
<path vector-effect="none" fill-rule="nonzero" d="M1.89062,6 L1.89062,9.5625 L3.90625,9.5625 C4.58333,9.5625 5.08854,9.41667 5.42188,9.125 C5.74479,8.83333 5.90625,8.38542 5.90625,7.78125 C5.90625,7.17708 5.74479,6.72917 5.42188,6.4375 C5.08854,6.14583 4.58333,6 3.90625,6 L1.89062,6 M1.89062,2.42188 L1.89062,5.5625 L3.76562,5.5625 C4.38021,5.5625 4.83854,5.4349 5.14062,5.17969 C5.44271,4.92448 5.59375,4.52604 5.59375,3.98438 C5.59375,3.45312 5.44271,3.0625 5.14062,2.8125 C4.83854,2.55208 4.38021,2.42188 3.76562,2.42188 L1.89062,2.42188 M1.35938,1.98438 L3.84375,1.98438 C4.58333,1.98438 5.15104,2.15625 5.54688,2.5 C5.94271,2.84375 6.14062,3.33333 6.14062,3.96875 C6.14062,4.48958 6.04167,4.88021 5.84375,5.14062 C5.61458,5.42188 5.33854,5.61458 5.01562,5.71875 C5.48438,5.84375 5.83333,6.06771 6.0625,6.39062 C6.32292,6.75521 6.45312,7.20833 6.45312,7.75 C6.45312,8.46875 6.23698,9.02344 5.80469,9.41406 C5.3724,9.80469 4.75521,10 3.95312,10 L1.35938,10 L1.35938,1.98438 M13.125,6.75 L13.125,7.0625 L8.5625,7.0625 C8.5625,8.02083 8.75,8.69792 9.125,9.09375 C9.54167,9.52083 10.1562,9.73438 10.9688,9.73438 C11.1875,9.73438 11.474,9.6875 11.8281,9.59375 C12.1823,9.5 12.5365,9.35938 12.8906,9.17188 L12.8906,9.6875 C12.5365,9.84375 12.1745,9.96094 11.8047,10.0391 C11.4349,10.1172 11.1406,10.1562 10.9219,10.1562 C9.99479,10.1562 9.29688,9.90625 8.82812,9.40625 C8.31771,8.875 8.0625,8.09375 8.0625,7.0625 C8.0625,5.98958 8.29167,5.1875 8.75,4.65625 C9.22917,4.11458 9.89583,3.84375 10.75,3.84375 C11.5312,3.84375 12.125,4.10417 12.5312,4.625 C12.9271,5.16667 13.125,5.875 13.125,6.75 M12.625,6.64062 C12.625,5.79688 12.4323,5.18229 12.0469,4.79688 C11.7344,4.45312 11.3021,4.28125 10.75,4.28125 C10.1562,4.28125 9.65625,4.45833 9.25,4.8125 C8.875,5.14583 8.65104,5.75521 8.57812,6.64062 L12.625,6.64062 M19.75,6.375 L19.75,10 L19.25,10 L19.25,6.40625 C19.25,5.625 19.1198,5.07552 18.8594,4.75781 C18.599,4.4401 18.2031,4.28125 17.6719,4.28125 C17.0573,4.28125 16.5729,4.45833 16.2188,4.8125 C15.8646,5.16667 15.6875,5.76042 15.6875,6.59375 L15.6875,10 L15.2031,10 L15.2031,1.64062 L15.6875,1.64062 L15.6875,5.09375 C15.8021,4.79167 16.0104,4.52083 16.3125,4.28125 C16.6562,3.98958 17.1458,3.84375 17.7812,3.84375 C18.3854,3.84375 18.8646,4.05729 19.2188,4.48438 C19.5729,4.91146 19.75,5.54167 19.75,6.375 M24.5781,6.60938 C23.776,6.60938 23.2005,6.75 22.8516,7.03125 C22.5026,7.3125 22.3281,7.72396 22.3281,8.26562 C22.3281,8.79688 22.474,9.17448 22.7656,9.39844 C23.0573,9.6224 23.401,9.73438 23.7969,9.73438 C24.5469,9.73438 25.0885,9.41667 25.4219,8.78125 C25.7552,8.13542 25.9219,7.53125 25.9219,6.96875 L25.9219,6.60938 L24.5781,6.60938 M26.4219,6.5625 L26.4219,10 L25.9219,10 L25.9219,8.35938 C25.651,9.16146 25.2865,9.67188 24.8281,9.89062 C24.474,10.0677 24.1146,10.1562 23.75,10.1562 C23.1562,10.1562 22.6875,9.99479 22.3438,9.67188 C22,9.34896 21.8281,8.8776 21.8281,8.25781 C21.8281,7.63802 22.0521,7.14062 22.5,6.76562 C22.9479,6.39062 23.6771,6.20312 24.6875,6.20312 L25.9219,6.20312 L25.9219,6.10938 C25.9219,5.57812 25.7656,5.14062 25.4531,4.79688 C25.1615,4.45312 24.6667,4.28125 23.9688,4.28125 C23.625,4.28125 23.276,4.34375 22.9219,4.46875 C22.6927,4.55208 22.3906,4.71875 22.0156,4.96875 L22.0156,4.4375 C22.3385,4.23958 22.6406,4.09896 22.9219,4.01562 C23.3177,3.90104 23.6979,3.84375 24.0625,3.84375 C24.7812,3.84375 25.3698,4.05729 25.8281,4.48438 C26.224,4.84896 26.4219,5.54167 26.4219,6.5625 M28.3594,3.98438 L28.875,3.98438 L30.9062,9.45312 L32.9531,3.98438 L33.4688,3.98438 L31.2344,10 L30.5938,10 L28.3594,3.98438 M35.3906,3.98438 L35.8906,3.98438 L35.8906,10 L35.3906,10 L35.3906,3.98438 M35.3906,1.64062 L35.8906,1.64062 L35.8906,2.3125 L35.3906,2.3125 L35.3906,1.64062 M42.0312,5.01562 C41.6771,4.52604 41.1927,4.28125 40.5781,4.28125 C39.9635,4.28125 39.4792,4.52604 39.125,5.01562 C38.7708,5.49479 38.5938,6.15104 38.5938,6.98438 C38.5938,7.83854 38.7708,8.51042 39.125,9 C39.4792,9.48958 39.9635,9.73438 40.5781,9.73438 C41.1927,9.73438 41.6771,9.48958 42.0312,9 C42.3854,8.5 42.5625,7.82812 42.5625,6.98438 C42.5625,6.16146 42.3854,5.50521 42.0312,5.01562 M40.5781,3.84375 C41.3385,3.84375 41.9427,4.13021 42.3906,4.70312 C42.8385,5.27604 43.0625,6.03646 43.0625,6.98438 C43.0625,7.97396 42.8385,8.75521 42.3906,9.32812 C41.9427,9.90104 41.3385,10.1875 40.5781,10.1875 C39.7969,10.1875 39.1823,9.90104 38.7344,9.32812 C38.2969,8.75521 38.0781,7.97396 38.0781,6.98438 C38.0781,6.02604 38.3021,5.26302 38.75,4.69531 C39.1979,4.1276 39.8073,3.84375 40.5781,3.84375 M48.4375,4.40625 C48.3542,4.36458 48.2448,4.33333 48.1094,4.3125 C47.9844,4.29167 47.8333,4.28125 47.6562,4.28125 C47.0417,4.28125 46.5365,4.50521 46.1406,4.95312 C45.8177,5.31771 45.6562,5.94271 45.6562,6.82812 L45.6562,10 L45.1719,10 L45.1719,3.98438 L45.6562,3.98438 L45.6562,5.10938 C45.8229,4.78646 46.0521,4.51562 46.3438,4.29688 C46.7396,3.99479 47.2083,3.84375 47.75,3.84375 C47.8958,3.84375 48.0208,3.84896 48.125,3.85938 C48.2292,3.85938 48.3333,3.86979 48.4375,3.89062 L48.4375,4.40625 M48.6719,1.98438 L54.9219,1.98438 L54.9219,2.42188 L52.0625,2.42188 L52.0625,10 L51.5312,10 L51.5312,2.42188 L48.6719,2.42188 L48.6719,1.98438 M59.6719,4.40625 C59.5885,4.36458 59.4792,4.33333 59.3438,4.3125 C59.2188,4.29167 59.0677,4.28125 58.8906,4.28125 C58.276,4.28125 57.7708,4.50521 57.375,4.95312 C57.0521,5.31771 56.8906,5.94271 56.8906,6.82812 L56.8906,10 L56.4062,10 L56.4062,3.98438 L56.8906,3.98438 L56.8906,5.10938 C57.0573,4.78646 57.2865,4.51562 57.5781,4.29688 C57.974,3.99479 58.4427,3.84375 58.9844,3.84375 C59.1302,3.84375 59.2552,3.84896 59.3594,3.85938 C59.4635,3.85938 59.5677,3.86979 59.6719,3.89062 L59.6719,4.40625 M65.6094,6.75 L65.6094,7.0625 L61.0469,7.0625 C61.0469,8.02083 61.2344,8.69792 61.6094,9.09375 C62.026,9.52083 62.6406,9.73438 63.4531,9.73438 C63.6719,9.73438 63.9583,9.6875 64.3125,9.59375 C64.6667,9.5 65.0208,9.35938 65.375,9.17188 L65.375,9.6875 C65.0208,9.84375 64.6589,9.96094 64.2891,10.0391 C63.9193,10.1172 63.625,10.1562 63.4062,10.1562 C62.4792,10.1562 61.7812,9.90625 61.3125,9.40625 C60.8021,8.875 60.5469,8.09375 60.5469,7.0625 C60.5469,5.98958 60.776,5.1875 61.2344,4.65625 C61.7135,4.11458 62.3802,3.84375 63.2344,3.84375 C64.0156,3.84375 64.6094,4.10417 65.0156,4.625 C65.4115,5.16667 65.6094,5.875 65.6094,6.75 M65.1094,6.64062 C65.1094,5.79688 64.9167,5.18229 64.5312,4.79688 C64.2188,4.45312 63.7865,4.28125 63.2344,4.28125 C62.6406,4.28125 62.1406,4.45833 61.7344,4.8125 C61.3594,5.14583 61.1354,5.75521 61.0625,6.64062 L65.1094,6.64062 M72.375,6.75 L72.375,7.0625 L67.8125,7.0625 C67.8125,8.02083 68,8.69792 68.375,9.09375 C68.7917,9.52083 69.4062,9.73438 70.2188,9.73438 C70.4375,9.73438 70.724,9.6875 71.0781,9.59375 C71.4323,9.5 71.7865,9.35938 72.1406,9.17188 L72.1406,9.6875 C71.7865,9.84375 71.4245,9.96094 71.0547,10.0391 C70.6849,10.1172 70.3906,10.1562 70.1719,10.1562 C69.2448,10.1562 68.5469,9.90625 68.0781,9.40625 C67.5677,8.875 67.3125,8.09375 67.3125,7.0625 C67.3125,5.98958 67.5417,5.1875 68,4.65625 C68.4792,4.11458 69.1458,3.84375 70,3.84375 C70.7812,3.84375 71.375,4.10417 71.7812,4.625 C72.1771,5.16667 72.375,5.875 72.375,6.75 M71.875,6.64062 C71.875,5.79688 71.6823,5.18229 71.2969,4.79688 C70.9844,4.45312 70.5521,4.28125 70,4.28125 C69.4062,4.28125 68.9062,4.45833 68.5,4.8125 C68.125,5.14583 67.901,5.75521 67.8281,6.64062 L71.875,6.64062 M84.7344,4.34375 L78.5469,6.5625 L84.7344,8.75 L84.7344,9.29688 L77.8594,6.79688 L77.8594,6.34375 L84.7344,3.84375 L84.7344,4.34375 M87.7656,2.42188 L87.7656,6.10938 L89.4219,6.10938 C90.0156,6.10938 90.4792,5.95312 90.8125,5.64062 C91.1354,5.31771 91.2969,4.85938 91.2969,4.26562 C91.2969,3.68229 91.1354,3.22917 90.8125,2.90625 C90.4792,2.58333 90.0156,2.42188 89.4219,2.42188 L87.7656,2.42188 M87.2344,1.98438 L89.4219,1.98438 C90.224,1.98438 90.8281,2.17708 91.2344,2.5625 C91.6406,2.94792 91.8438,3.51562 91.8438,4.26562 C91.8438,5.01562 91.6406,5.58333 91.2344,5.96875 C90.8281,6.35417 90.224,6.54688 89.4219,6.54688 L87.7656,6.54688 L87.7656,10 L87.2344,10 L87.2344,1.98438 M96.1719,6.60938 C95.3698,6.60938 94.7943,6.75 94.4453,7.03125 C94.0964,7.3125 93.9219,7.72396 93.9219,8.26562 C93.9219,8.79688 94.0677,9.17448 94.3594,9.39844 C94.651,9.6224 94.9948,9.73438 95.3906,9.73438 C96.1406,9.73438 96.6823,9.41667 97.0156,8.78125 C97.349,8.13542 97.5156,7.53125 97.5156,6.96875 L97.5156,6.60938 L96.1719,6.60938 M98.0156,6.5625 L98.0156,10 L97.5156,10 L97.5156,8.35938 C97.2448,9.16146 96.8802,9.67188 96.4219,9.89062 C96.0677,10.0677 95.7083,10.1562 95.3438,10.1562 C94.75,10.1562 94.2812,9.99479 93.9375,9.67188 C93.5938,9.34896 93.4219,8.8776 93.4219,8.25781 C93.4219,7.63802 93.6458,7.14062 94.0938,6.76562 C94.5417,6.39062 95.2708,6.20312 96.2812,6.20312 L97.5156,6.20312 L97.5156,6.10938 C97.5156,5.57812 97.3594,5.14062 97.0469,4.79688 C96.7552,4.45312 96.2604,4.28125 95.5625,4.28125 C95.2188,4.28125 94.8698,4.34375 94.5156,4.46875 C94.2865,4.55208 93.9844,4.71875 93.6094,4.96875 L93.6094,4.4375 C93.9323,4.23958 94.2344,4.09896 94.5156,4.01562 C94.9115,3.90104 95.2917,3.84375 95.6562,3.84375 C96.375,3.84375 96.9635,4.05729 97.4219,4.48438 C97.8177,4.84896 98.0156,5.54167 98.0156,6.5625 M101.016,2.28125 L101.016,3.98438 L103.047,3.98438 L103.047,4.40625 L101.016,4.40625 L101.016,8.01562 C101.016,8.47396 101.073,8.79688 101.188,8.98438 C101.438,9.38021 101.797,9.57812 102.266,9.57812 L103.047,9.57812 L103.047,10 L102.281,10 C101.792,10 101.375,9.85677 101.031,9.57031 C100.688,9.28385 100.516,8.76562 100.516,8.01562 L100.516,4.40625 L99.7969,4.40625 L99.7969,3.98438 L100.516,3.98438 L100.516,2.28125 L101.016,2.28125 M108.078,4.40625 C107.995,4.36458 107.885,4.33333 107.75,4.3125 C107.625,4.29167 107.474,4.28125 107.297,4.28125 C106.682,4.28125 106.177,4.50521 105.781,4.95312 C105.458,5.31771 105.297,5.94271 105.297,6.82812 L105.297,10 L104.812,10 L104.812,3.98438 L105.297,3.98438 L105.297,5.10938 C105.464,4.78646 105.693,4.51562 105.984,4.29688 C106.38,3.99479 106.849,3.84375 107.391,3.84375 C107.536,3.84375 107.661,3.84896 107.766,3.85938 C107.87,3.85938 107.974,3.86979 108.078,3.89062 L108.078,4.40625 M112.906,5.01562 C112.552,4.52604 112.068,4.28125 111.453,4.28125 C110.839,4.28125 110.354,4.52604 110,5.01562 C109.646,5.49479 109.469,6.15104 109.469,6.98438 C109.469,7.83854 109.646,8.51042 110,9 C110.354,9.48958 110.839,9.73438 111.453,9.73438 C112.068,9.73438 112.552,9.48958 112.906,9 C113.26,8.5 113.438,7.82812 113.438,6.98438 C113.438,6.16146 113.26,5.50521 112.906,5.01562 M111.453,3.84375 C112.214,3.84375 112.818,4.13021 113.266,4.70312 C113.714,5.27604 113.938,6.03646 113.938,6.98438 C113.938,7.97396 113.714,8.75521 113.266,9.32812 C112.818,9.90104 112.214,10.1875 111.453,10.1875 C110.672,10.1875 110.057,9.90104 109.609,9.32812 C109.172,8.75521 108.953,7.97396 108.953,6.98438 C108.953,6.02604 109.177,5.26302 109.625,4.69531 C110.073,4.1276 110.682,3.84375 111.453,3.84375 M116.047,1.64062 L116.531,1.64062 L116.531,10 L116.047,10 L116.047,1.64062 M123.094,2.28125 L123.094,3.98438 L125.125,3.98438 L125.125,4.40625 L123.094,4.40625 L123.094,8.01562 C123.094,8.47396 123.151,8.79688 123.266,8.98438 C123.516,9.38021 123.875,9.57812 124.344,9.57812 L125.125,9.57812 L125.125,10 L124.359,10 C123.87,10 123.453,9.85677 123.109,9.57031 C122.766,9.28385 122.594,8.76562 122.594,8.01562 L122.594,4.40625 L121.875,4.40625 L121.875,3.98438 L122.594,3.98438 L122.594,2.28125 L123.094,2.28125 M130.156,4.40625 C130.073,4.36458 129.964,4.33333 129.828,4.3125 C129.703,4.29167 129.552,4.28125 129.375,4.28125 C128.76,4.28125 128.255,4.50521 127.859,4.95312 C127.536,5.31771 127.375,5.94271 127.375,6.82812 L127.375,10 L126.891,10 L126.891,3.98438 L127.375,3.98438 L127.375,5.10938 C127.542,4.78646 127.771,4.51562 128.062,4.29688 C128.458,3.99479 128.927,3.84375 129.469,3.84375 C129.615,3.84375 129.74,3.84896 129.844,3.85938 C129.948,3.85938 130.052,3.86979 130.156,3.89062 L130.156,4.40625 M136.094,6.75 L136.094,7.0625 L131.531,7.0625 C131.531,8.02083 131.719,8.69792 132.094,9.09375 C132.51,9.52083 133.125,9.73438 133.938,9.73438 C134.156,9.73438 134.443,9.6875 134.797,9.59375 C135.151,9.5 135.505,9.35938 135.859,9.17188 L135.859,9.6875 C135.505,9.84375 135.143,9.96094 134.773,10.0391 C134.404,10.1172 134.109,10.1562 133.891,10.1562 C132.964,10.1562 132.266,9.90625 131.797,9.40625 C131.286,8.875 131.031,8.09375 131.031,7.0625 C131.031,5.98958 131.26,5.1875 131.719,4.65625 C132.198,4.11458 132.865,3.84375 133.719,3.84375 C134.5,3.84375 135.094,4.10417 135.5,4.625 C135.896,5.16667 136.094,5.875 136.094,6.75 M135.594,6.64062 C135.594,5.79688 135.401,5.18229 135.016,4.79688 C134.703,4.45312 134.271,4.28125 133.719,4.28125 C133.125,4.28125 132.625,4.45833 132.219,4.8125 C131.844,5.14583 131.62,5.75521 131.547,6.64062 L135.594,6.64062 M142.859,6.75 L142.859,7.0625 L138.297,7.0625 C138.297,8.02083 138.484,8.69792 138.859,9.09375 C139.276,9.52083 139.891,9.73438 140.703,9.73438 C140.922,9.73438 141.208,9.6875 141.562,9.59375 C141.917,9.5 142.271,9.35938 142.625,9.17188 L142.625,9.6875 C142.271,9.84375 141.909,9.96094 141.539,10.0391 C141.169,10.1172 140.875,10.1562 140.656,10.1562 C139.729,10.1562 139.031,9.90625 138.562,9.40625 C138.052,8.875 137.797,8.09375 137.797,7.0625 C137.797,5.98958 138.026,5.1875 138.484,4.65625 C138.964,4.11458 139.63,3.84375 140.484,3.84375 C141.266,3.84375 141.859,4.10417 142.266,4.625 C142.661,5.16667 142.859,5.875 142.859,6.75 M142.359,6.64062 C142.359,5.79688 142.167,5.18229 141.781,4.79688 C141.469,4.45312 141.036,4.28125 140.484,4.28125 C139.891,4.28125 139.391,4.45833 138.984,4.8125 C138.609,5.14583 138.385,5.75521 138.312,6.64062 L142.359,6.64062 M144.859,4.34375 L144.859,3.84375 L151.734,6.34375 L151.734,6.79688 L144.859,9.29688 L144.859,8.75 L151.047,6.5625 L144.859,4.34375"/>
</g>

<g fill="none" stroke="#008000" stroke-opacity="1" stroke-width="1" stroke-linecap="square" stroke-linejoin="bevel" transform="matrix(2,0,0,2,14.1062,311)"
font-family="sans" font-size="11" font-weight="100" font-style="normal" 
>
</g>

<g fill="none" stroke="#000000" stroke-opacity="1" stroke-width="1" stroke-linecap="square" stroke-linejoin="bevel" transform="matrix(2,0,0,2,14.1062,311)"
font-family="Cantarell" font-size="11" font-weight="400" font-style="normal" 
>
</g>

<g fill="none" stroke="#000000" stroke-opacity="1" stroke-width="1" stroke-linecap="square" stroke-linejoin="bevel" transform="matrix(2,0,0,2,-0.0032,360)"
font-family="Cantarell" font-size="11" font-weight="400" font-style="normal" 
>
</g>

<g fill="none" stroke="#000000" stroke-opacity="1" stroke-width="1" stroke-linecap="square" stroke-linejoin="bevel" transform="matrix(2,0,0,2,-0.0032,360)"
font-family="Cantarell" font-size="11" font-weight="400" font-style="normal" 
>
</g>

<g fill="none" stroke="#000000" stroke-opacity="1" stroke-width="1" stroke-linecap="square" stroke-linejoin="bevel" transform="matrix(2,0,0,2,-0.0032,360)"
font-family="Cantarell" font-size="11" font-weight="400" font-style="normal" 
>
</g>

<g fill="none" stroke="#000000" stroke-opacity="1" stroke-width="1" stroke-linecap="square" stroke-linejoin="round" transform="matrix(2,0,0,2,-0.0032,360)"
font-family="Cantarell" font-size="11" font-weight="400" font-style="normal" 
>
<rect x="185.001" y="-35.5" width="104.998" height="35"/>
</g>

<g fill="none" stroke="#000000" stroke-opacity="1" stroke-width="1" stroke-linecap="square" stroke-linejoin="bevel" transform="matrix(2,0,0,2,-0.0032,360)"
font-family="Cantarell" font-size="11" font-weight="400" font-style="normal" 
>
</g>

<g fill="none" stroke="#000000" stroke-opacity="1" stroke-width="1" stroke-linecap="square" stroke-linejoin="bevel" transform="matrix(2,0,0,2,389.606,311)"
font-family="Cantarell" font-size="11" font-weight="400" font-style="normal" 
>
</g>

<g fill="none" stroke="#000000" stroke-opacity="1" stroke-width="1" stroke-linecap="square" stroke-linejoin="bevel" transform="matrix(2,0,0,2,389.606,311)"
font-family="sans" font-size="11" font-weight="100" font-style="normal" 
>
</g>

<g fill="#000000" fill-opacity="1" stroke="#000000" stroke-opacity="1" stroke-width="1" stroke-linecap="square" stroke-linejoin="round" transform="matrix(2,0,0,2,389.606,311)"
font-family="sans" font-size="11" font-weight="100" font-style="normal" 
>
<path vector-effect="none" fill-rule="nonzero" d="M1.76562,1.98438 L2.51562,1.98438 L4.75,7.92188 L6.98438,1.98438 L7.71875,1.98438 L7.71875,10 L7.17188,10 L7.17188,2.95312 L5.10938,8.45312 L4.375,8.45312 L2.3125,2.95312 L2.3125,10 L1.76562,10 L1.76562,1.98438 M14.3125,5.01562 C13.9583,4.52604 13.474,4.28125 12.8594,4.28125 C12.2448,4.28125 11.7604,4.52604 11.4062,5.01562 C11.0521,5.49479 10.875,6.15104 10.875,6.98438 C10.875,7.83854 11.0521,8.51042 11.4062,9 C11.7604,9.48958 12.2448,9.73438 12.8594,9.73438 C13.474,9.73438 13.9583,9.48958 14.3125,9 C14.6667,8.5 14.8438,7.82812 14.8438,6.98438 C14.8438,6.16146 14.6667,5.50521 14.3125,5.01562 M12.8594,3.84375 C13.6198,3.84375 14.224,4.13021 14.6719,4.70312 C15.1198,5.27604 15.3438,6.03646 15.3438,6.98438 C15.3438,7.97396 15.1198,8.75521 14.6719,9.32812 C14.224,9.90104 13.6198,10.1875 12.8594,10.1875 C12.0781,10.1875 11.4635,9.90104 11.0156,9.32812 C10.5781,8.75521 10.3594,7.97396 10.3594,6.98438 C10.3594,6.02604 10.5833,5.26302 11.0312,4.69531 C11.4792,4.1276 12.0885,3.84375 12.8594,3.84375 M16.9062,3.98438 L17.4219,3.98438 L19.4531,9.45312 L21.5,3.98438 L22.0156,3.98438 L19.7812,10 L19.1406,10 L16.9062,3.98438 M28.6406,6.75 L28.6406,7.0625 L24.0781,7.0625 C24.0781,8.02083 24.2656,8.69792 24.6406,9.09375 C25.0573,9.52083 25.6719,9.73438 26.4844,9.73438 C26.7031,9.73438 26.9896,9.6875 27.3438,9.59375 C27.6979,9.5 28.0521,9.35938 28.4062,9.17188 L28.4062,9.6875 C28.0521,9.84375 27.6901,9.96094 27.3203,10.0391 C26.9505,10.1172 26.6562,10.1562 26.4375,10.1562 C25.5104,10.1562 24.8125,9.90625 24.3438,9.40625 C23.8333,8.875 23.5781,8.09375 23.5781,7.0625 C23.5781,5.98958 23.8073,5.1875 24.2656,4.65625 C24.7448,4.11458 25.4115,3.84375 26.2656,3.84375 C27.0469,3.84375 27.6406,4.10417 28.0469,4.625 C28.4427,5.16667 28.6406,5.875 28.6406,6.75 M28.1406,6.64062 C28.1406,5.79688 27.9479,5.18229 27.5625,4.79688 C27.25,4.45312 26.8177,4.28125 26.2656,4.28125 C25.6719,4.28125 25.1719,4.45833 24.7656,4.8125 C24.3906,5.14583 24.1667,5.75521 24.0938,6.64062 L28.1406,6.64062 M29.7031,1.98438 L35.9531,1.98438 L35.9531,2.42188 L33.0938,2.42188 L33.0938,10 L32.5625,10 L32.5625,2.42188 L29.7031,2.42188 L29.7031,1.98438 M41.0156,5.01562 C40.6615,4.52604 40.1771,4.28125 39.5625,4.28125 C38.9479,4.28125 38.4635,4.52604 38.1094,5.01562 C37.7552,5.49479 37.5781,6.15104 37.5781,6.98438 C37.5781,7.83854 37.7552,8.51042 38.1094,9 C38.4635,9.48958 38.9479,9.73438 39.5625,9.73438 C40.1771,9.73438 40.6615,9.48958 41.0156,9 C41.3698,8.5 41.5469,7.82812 41.5469,6.98438 C41.5469,6.16146 41.3698,5.50521 41.0156,5.01562 M39.5625,3.84375 C40.3229,3.84375 40.9271,4.13021 41.375,4.70312 C41.8229,5.27604 42.0469,6.03646 42.0469,6.98438 C42.0469,7.97396 41.8229,8.75521 41.375,9.32812 C40.9271,9.90104 40.3229,10.1875 39.5625,10.1875 C38.7812,10.1875 38.1667,9.90104 37.7188,9.32812 C37.2812,8.75521 37.0625,7.97396 37.0625,6.98438 C37.0625,6.02604 37.2865,5.26302 37.7344,4.69531 C38.1823,4.1276 38.7917,3.84375 39.5625,3.84375 M54.4375,4.34375 L48.25,6.5625 L54.4375,8.75 L54.4375,9.29688 L47.5625,6.79688 L47.5625,6.34375 L54.4375,3.84375 L54.4375,4.34375 M56.8281,3.98438 L57.3281,3.98438 L57.3281,10 L56.8281,10 L56.8281,3.98438 M56.8281,1.64062 L57.3281,1.64062 L57.3281,2.3125 L56.8281,2.3125 L56.8281,1.64062 M64.4375,6.375 L64.4375,10 L63.9375,10 L63.9375,6.40625 C63.9375,5.625 63.8125,5.07552 63.5625,4.75781 C63.3125,4.4401 62.9427,4.28125 62.4531,4.28125 C61.8802,4.28125 61.3958,4.45312 61,4.79688 C60.5833,5.14062 60.375,5.73958 60.375,6.59375 L60.375,10 L59.8906,10 L59.8906,3.98438 L60.375,3.98438 L60.375,5.10938 C60.5521,4.74479 60.7865,4.46875 61.0781,4.28125 C61.4948,3.98958 61.9583,3.84375 62.4688,3.84375 C63.0729,3.84375 63.5521,4.04688 63.9062,4.45312 C64.2604,4.84896 64.4375,5.48958 64.4375,6.375 M69.4375,1.64062 L69.4375,2.0625 L68.75,2.0625 C68.3854,2.0625 68.1042,2.15625 67.9062,2.34375 C67.6667,2.57292 67.5469,2.94271 67.5469,3.45312 L67.5469,3.98438 L69.1719,3.98438 L69.1719,4.40625 L67.5469,4.40625 L67.5469,10 L67.0469,10 L67.0469,4.40625 L66.1094,4.40625 L66.1094,3.98438 L67.0469,3.98438 L67.0469,3.5625 C67.0469,2.89583 67.2031,2.41146 67.5156,2.10938 C67.8177,1.79688 68.2292,1.64062 68.75,1.64062 L69.4375,1.64062 M74.2969,5.01562 C73.9427,4.52604 73.4583,4.28125 72.8438,4.28125 C72.2292,4.28125 71.7448,4.52604 71.3906,5.01562 C71.0365,5.49479 70.8594,6.15104 70.8594,6.98438 C70.8594,7.83854 71.0365,8.51042 71.3906,9 C71.7448,9.48958 72.2292,9.73438 72.8438,9.73438 C73.4583,9.73438 73.9427,9.48958 74.2969,9 C74.651,8.5 74.8281,7.82812 74.8281,6.98438 C74.8281,6.16146 74.651,5.50521 74.2969,5.01562 M72.8438,3.84375 C73.6042,3.84375 74.2083,4.13021 74.6562,4.70312 C75.1042,5.27604 75.3281,6.03646 75.3281,6.98438 C75.3281,7.97396 75.1042,8.75521 74.6562,9.32812 C74.2083,9.90104 73.6042,10.1875 72.8438,10.1875 C72.0625,10.1875 71.4479,9.90104 71,9.32812 C70.5625,8.75521 70.3438,7.97396 70.3438,6.98438 C70.3438,6.02604 70.5677,5.26302 71.0156,4.69531 C71.4635,4.1276 72.0729,3.84375 72.8438,3.84375 M77.3594,4.34375 L77.3594,3.84375 L84.2344,6.34375 L84.2344,6.79688 L77.3594,9.29688 L77.3594,8.75 L83.5469,6.5625 L77.3594,4.34375"/>
</g>

<g fill="none" stroke="#000000" stroke-opacity="1" stroke-width="1" stroke-linecap="square" stroke-linejoin="bevel" transform="matrix(2,0,0,2,389.606,311)"
font-family="sans" font-size="11" font-weight="100" font-style="normal" 
>
</g>

<g fill="none" stroke="#000000" stroke-opacity="1" stroke-width="1" stroke-linecap="square" stroke-linejoin="bevel" transform="matrix(2,0,0,2,389.606,311)"
font-family="Cantarell" font-size="11" font-weight="400" font-style="normal" 
>
</g>

<g fill="none" stroke="#000000" stroke-opacity="1" stroke-width="1" stroke-linecap="square" stroke-linejoin="bevel" transform="matrix(2,0,0,2,-0.0032,360)"
font-family="Cantarell" font-size="11" font-weight="400" font-style="normal" 
>
</g>

<g fill="none" stroke="#000000" stroke-opacity="1" stroke-width="1" stroke-linecap="square" stroke-linejoin="bevel" transform="matrix(2,0,0,2,-0.0032,360)"
font-family="Cantarell" font-size="11" font-weight="400" font-style="normal" 
>
</g>

<g fill="none" stroke="#000000" stroke-opacity="1" stroke-width="1" stroke-linecap="square" stroke-linejoin="bevel" transform="matrix(2,0,0,2,-0.0032,360)"
font-family="Cantarell" font-size="11" font-weight="400" font-style="normal" 
>
</g>

<g fill="none" stroke="#000000" stroke-opacity="1" stroke-width="1" stroke-linecap="square" stroke-linejoin="round" transform="matrix(2,0,0,2,-0.0032,360)"
font-family="Cantarell" font-size="11" font-weight="400" font-style="normal" 
>
<rect x="80.5004" y="-179.5" width="159.999" height="35"/>
</g>

<g fill="none" stroke="#000000" stroke-opacity="1" stroke-width="1" stroke-linecap="square" stroke-linejoin="bevel" transform="matrix(2,0,0,2,-0.0032,360)"
font-family="Cantarell" font-size="11" font-weight="400" font-style="normal" 
>
</g>

<g fill="none" stroke="#000000" stroke-opacity="1" stroke-width="1" stroke-linecap="square" stroke-linejoin="bevel" transform="matrix(2,0,0,2,174.669,23)"
font-family="Cantarell" font-size="11" font-weight="400" font-style="normal" 
>
</g>

<g fill="none" stroke="#000000" stroke-opacity="1" stroke-width="1" stroke-linecap="square" stroke-linejoin="bevel" transform="matrix(2,0,0,2,174.669,23)"
font-family="sans" font-size="11" font-weight="100" font-style="normal" 
>
</g>

<g fill="#000000" fill-opacity="1" stroke="#000000" stroke-opacity="1" stroke-width="1" stroke-linecap="square" stroke-linejoin="round" transform="matrix(2,0,0,2,174.669,23)"
font-family="sans" font-size="11" font-weight="100" font-style="normal" 
>
<path vector-effect="none" fill-rule="nonzero" d="M1.89062,6 L1.89062,9.5625 L3.90625,9.5625 C4.58333,9.5625 5.08854,9.41667 5.42188,9.125 C5.74479,8.83333 5.90625,8.38542 5.90625,7.78125 C5.90625,7.17708 5.74479,6.72917 5.42188,6.4375 C5.08854,6.14583 4.58333,6 3.90625,6 L1.89062,6 M1.89062,2.42188 L1.89062,5.5625 L3.76562,5.5625 C4.38021,5.5625 4.83854,5.4349 5.14062,5.17969 C5.44271,4.92448 5.59375,4.52604 5.59375,3.98438 C5.59375,3.45312 5.44271,3.0625 5.14062,2.8125 C4.83854,2.55208 4.38021,2.42188 3.76562,2.42188 L1.89062,2.42188 M1.35938,1.98438 L3.84375,1.98438 C4.58333,1.98438 5.15104,2.15625 5.54688,2.5 C5.94271,2.84375 6.14062,3.33333 6.14062,3.96875 C6.14062,4.48958 6.04167,4.88021 5.84375,5.14062 C5.61458,5.42188 5.33854,5.61458 5.01562,5.71875 C5.48438,5.84375 5.83333,6.06771 6.0625,6.39062 C6.32292,6.75521 6.45312,7.20833 6.45312,7.75 C6.45312,8.46875 6.23698,9.02344 5.80469,9.41406 C5.3724,9.80469 4.75521,10 3.95312,10 L1.35938,10 L1.35938,1.98438 M13.125,6.75 L13.125,7.0625 L8.5625,7.0625 C8.5625,8.02083 8.75,8.69792 9.125,9.09375 C9.54167,9.52083 10.1562,9.73438 10.9688,9.73438 C11.1875,9.73438 11.474,9.6875 11.8281,9.59375 C12.1823,9.5 12.5365,9.35938 12.8906,9.17188 L12.8906,9.6875 C12.5365,9.84375 12.1745,9.96094 11.8047,10.0391 C11.4349,10.1172 11.1406,10.1562 10.9219,10.1562 C9.99479,10.1562 9.29688,9.90625 8.82812,9.40625 C8.31771,8.875 8.0625,8.09375 8.0625,7.0625 C8.0625,5.98958 8.29167,5.1875 8.75,4.65625 C9.22917,4.11458 9.89583,3.84375 10.75,3.84375 C11.5312,3.84375 12.125,4.10417 12.5312,4.625 C12.9271,5.16667 13.125,5.875 13.125,6.75 M12.625,6.64062 C12.625,5.79688 12.4323,5.18229 12.0469,4.79688 C11.7344,4.45312 11.3021,4.28125 10.75,4.28125 C10.1562,4.28125 9.65625,4.45833 9.25,4.8125 C8.875,5.14583 8.65104,5.75521 8.57812,6.64062 L12.625,6.64062 M19.75,6.375 L19.75,10 L19.25,10 L19.25,6.40625 C19.25,5.625 19.1198,5.07552 18.8594,4.75781 C18.599,4.4401 18.2031,4.28125 17.6719,4.28125 C17.0573,4.28125 16.5729,4.45833 16.2188,4.8125 C15.8646,5.16667 15.6875,5.76042 15.6875,6.59375 L15.6875,10 L15.2031,10 L15.2031,1.64062 L15.6875,1.64062 L15.6875,5.09375 C15.8021,4.79167 16.0104,4.52083 16.3125,4.28125 C16.6562,3.98958 17.1458,3.84375 17.7812,3.84375 C18.3854,3.84375 18.8646,4.05729 19.2188,4.48438 C19.5729,4.91146 19.75,5.54167 19.75,6.375 M24.5781,6.60938 C23.776,6.60938 23.2005,6.75 22.8516,7.03125 C22.5026,7.3125 22.3281,7.72396 22.3281,8.26562 C22.3281,8.79688 22.474,9.17448 22.7656,9.39844 C23.0573,9.6224 23.401,9.73438 23.7969,9.73438 C24.5469,9.73438 25.0885,9.41667 25.4219,8.78125 C25.7552,8.13542 25.9219,7.53125 25.9219,6.96875 L25.9219,6.60938 L24.5781,6.60938 M26.4219,6.5625 L26.4219,10 L25.9219,10 L25.9219,8.35938 C25.651,9.16146 25.2865,9.67188 24.8281,9.89062 C24.474,10.0677 24.1146,10.1562 23.75,10.1562 C23.1562,10.1562 22.6875,9.99479 22.3438,9.67188 C22,9.34896 21.8281,8.8776 21.8281,8.25781 C21.8281,7.63802 22.0521,7.14062 22.5,6.76562 C22.9479,6.39062 23.6771,6.20312 24.6875,6.20312 L25.9219,6.20312 L25.9219,6.10938 C25.9219,5.57812 25.7656,5.14062 25.4531,4.79688 C25.1615,4.45312 24.6667,4.28125 23.9688,4.28125 C23.625,4.28125 23.276,4.34375 22.9219,4.46875 C22.6927,4.55208 22.3906,4.71875 22.0156,4.96875 L22.0156,4.4375 C22.3385,4.23958 22.6406,4.09896 22.9219,4.01562 C23.3177,3.90104 23.6979,3.84375 24.0625,3.84375 C24.7812,3.84375 25.3698,4.05729 25.8281,4.48438 C26.224,4.84896 26.4219,5.54167 26.4219,6.5625 M28.3594,3.98438 L28.875,3.98438 L30.9062,9.45312 L32.9531,3.98438 L33.4688,3.98438 L31.2344,10 L30.5938,10 L28.3594,3.98438 M35.3906,3.98438 L35.8906,3.98438 L35.8906,10 L35.3906,10 L35.3906,3.98438 M35.3906,1.64062 L35.8906,1.64062 L35.8906,2.3125 L35.3906,2.3125 L35.3906,1.64062 M42.0312,5.01562 C41.6771,4.52604 41.1927,4.28125 40.5781,4.28125 C39.9635,4.28125 39.4792,4.52604 39.125,5.01562 C38.7708,5.49479 38.5938,6.15104 38.5938,6.98438 C38.5938,7.83854 38.7708,8.51042 39.125,9 C39.4792,9.48958 39.9635,9.73438 40.5781,9.73438 C41.1927,9.73438 41.6771,9.48958 42.0312,9 C42.3854,8.5 42.5625,7.82812 42.5625,6.98438 C42.5625,6.16146 42.3854,5.50521 42.0312,5.01562 M40.5781,3.84375 C41.3385,3.84375 41.9427,4.13021 42.3906,4.70312 C42.8385,5.27604 43.0625,6.03646 43.0625,6.98438 C43.0625,7.97396 42.8385,8.75521 42.3906,9.32812 C41.9427,9.90104 41.3385,10.1875 40.5781,10.1875 C39.7969,10.1875 39.1823,9.90104 38.7344,9.32812 C38.2969,8.75521 38.0781,7.97396 38.0781,6.98438 C38.0781,6.02604 38.3021,5.26302 38.75,4.69531 C39.1979,4.1276 39.8073,3.84375 40.5781,3.84375 M48.4375,4.40625 C48.3542,4.36458 48.2448,4.33333 48.1094,4.3125 C47.9844,4.29167 47.8333,4.28125 47.6562,4.28125 C47.0417,4.28125 46.5365,4.50521 46.1406,4.95312 C45.8177,5.31771 45.6562,5.94271 45.6562,6.82812 L45.6562,10 L45.1719,10 L45.1719,3.98438 L45.6562,3.98438 L45.6562,5.10938 C45.8229,4.78646 46.0521,4.51562 46.3438,4.29688 C46.7396,3.99479 47.2083,3.84375 47.75,3.84375 C47.8958,3.84375 48.0208,3.84896 48.125,3.85938 C48.2292,3.85938 48.3333,3.86979 48.4375,3.89062 L48.4375,4.40625 M48.6719,1.98438 L54.9219,1.98438 L54.9219,2.42188 L52.0625,2.42188 L52.0625,10 L51.5312,10 L51.5312,2.42188 L48.6719,2.42188 L48.6719,1.98438 M59.6719,4.40625 C59.5885,4.36458 59.4792,4.33333 59.3438,4.3125 C59.2188,4.29167 59.0677,4.28125 58.8906,4.28125 C58.276,4.28125 57.7708,4.50521 57.375,4.95312 C57.0521,5.31771 56.8906,5.94271 56.8906,6.82812 L56.8906,10 L56.4062,10 L56.4062,3.98438 L56.8906,3.98438 L56.8906,5.10938 C57.0573,4.78646 57.2865,4.51562 57.5781,4.29688 C57.974,3.99479 58.4427,3.84375 58.9844,3.84375 C59.1302,3.84375 59.2552,3.84896 59.3594,3.85938 C59.4635,3.85938 59.5677,3.86979 59.6719,3.89062 L59.6719,4.40625 M65.6094,6.75 L65.6094,7.0625 L61.0469,7.0625 C61.0469,8.02083 61.2344,8.69792 61.6094,9.09375 C62.026,9.52083 62.6406,9.73438 63.4531,9.73438 C63.6719,9.73438 63.9583,9.6875 64.3125,9.59375 C64.6667,9.5 65.0208,9.35938 65.375,9.17188 L65.375,9.6875 C65.0208,9.84375 64.6589,9.96094 64.2891,10.0391 C63.9193,10.1172 63.625,10.1562 63.4062,10.1562 C62.4792,10.1562 61.7812,9.90625 61.3125,9.40625 C60.8021,8.875 60.5469,8.09375 60.5469,7.0625 C60.5469,5.98958 60.776,5.1875 61.2344,4.65625 C61.7135,4.11458 62.3802,3.84375 63.2344,3.84375 C64.0156,3.84375 64.6094,4.10417 65.0156,4.625 C65.4115,5.16667 65.6094,5.875 65.6094,6.75 M65.1094,6.64062 C65.1094,5.79688 64.9167,5.18229 64.5312,4.79688 C64.2188,4.45312 63.7865,4.28125 63.2344,4.28125 C62.6406,4.28125 62.1406,4.45833 61.7344,4.8125 C61.3594,5.14583 61.1354,5.75521 61.0625,6.64062 L65.1094,6.64062 M72.375,6.75 L72.375,7.0625 L67.8125,7.0625 C67.8125,8.02083 68,8.69792 68.375,9.09375 C68.7917,9.52083 69.4062,9.73438 70.2188,9.73438 C70.4375,9.73438 70.724,9.6875 71.0781,9.59375 C71.4323,9.5 71.7865,9.35938 72.1406,9.17188 L72.1406,9.6875 C71.7865,9.84375 71.4245,9.96094 71.0547,10.0391 C70.6849,10.1172 70.3906,10.1562 70.1719,10.1562 C69.2448,10.1562 68.5469,9.90625 68.0781,9.40625 C67.5677,8.875 67.3125,8.09375 67.3125,7.0625 C67.3125,5.98958 67.5417,5.1875 68,4.65625 C68.4792,4.11458 69.1458,3.84375 70,3.84375 C70.7812,3.84375 71.375,4.10417 71.7812,4.625 C72.1771,5.16667 72.375,5.875 72.375,6.75 M71.875,6.64062 C71.875,5.79688 71.6823,5.18229 71.2969,4.79688 C70.9844,4.45312 70.5521,4.28125 70,4.28125 C69.4062,4.28125 68.9062,4.45833 68.5,4.8125 C68.125,5.14583 67.901,5.75521 67.8281,6.64062 L71.875,6.64062 M84.7344,4.34375 L78.5469,6.5625 L84.7344,8.75 L84.7344,9.29688 L77.8594,6.79688 L77.8594,6.34375 L84.7344,3.84375 L84.7344,4.34375 M90.5469,6.23438 C90.7656,6.31771 90.9792,6.48958 91.1875,6.75 C91.3333,6.9375 91.5469,7.29167 91.8281,7.8125 L92.9375,10 L92.375,10 L91.2188,7.79688 C90.9271,7.22396 90.6458,6.84375 90.375,6.65625 C90.0938,6.46875 89.7135,6.375 89.2344,6.375 L87.7812,6.375 L87.7812,10 L87.25,10 L87.25,1.98438 L89.4219,1.98438 C90.2448,1.98438 90.8568,2.17448 91.2578,2.55469 C91.6589,2.9349 91.8594,3.51562 91.8594,4.29688 C91.8594,4.78646 91.7552,5.20312 91.5469,5.54688 C91.349,5.88021 91.0156,6.10938 90.5469,6.23438 M87.7812,2.42188 L87.7812,5.92188 L89.5469,5.92188 C90.1198,5.92188 90.5547,5.77344 90.8516,5.47656 C91.1484,5.17969 91.2969,4.74479 91.2969,4.17188 C91.2969,3.58854 91.1484,3.15104 90.8516,2.85938 C90.5547,2.56771 90.1198,2.42188 89.5469,2.42188 L87.7812,2.42188 M98.3594,5.01562 C98.0052,4.52604 97.5208,4.28125 96.9062,4.28125 C96.2917,4.28125 95.8073,4.52604 95.4531,5.01562 C95.099,5.49479 94.9219,6.15104 94.9219,6.98438 C94.9219,7.83854 95.099,8.51042 95.4531,9 C95.8073,9.48958 96.2917,9.73438 96.9062,9.73438 C97.5208,9.73438 98.0052,9.48958 98.3594,9 C98.7135,8.5 98.8906,7.82812 98.8906,6.98438 C98.8906,6.16146 98.7135,5.50521 98.3594,5.01562 M96.9062,3.84375 C97.6667,3.84375 98.2708,4.13021 98.7188,4.70312 C99.1667,5.27604 99.3906,6.03646 99.3906,6.98438 C99.3906,7.97396 99.1667,8.75521 98.7188,9.32812 C98.2708,9.90104 97.6667,10.1875 96.9062,10.1875 C96.125,10.1875 95.5104,9.90104 95.0625,9.32812 C94.625,8.75521 94.4062,7.97396 94.4062,6.98438 C94.4062,6.02604 94.6302,5.26302 95.0781,4.69531 C95.526,4.1276 96.1354,3.84375 96.9062,3.84375 M105.078,5.01562 C104.724,4.52604 104.24,4.28125 103.625,4.28125 C103.01,4.28125 102.526,4.52604 102.172,5.01562 C101.818,5.49479 101.641,6.15104 101.641,6.98438 C101.641,7.83854 101.818,8.51042 102.172,9 C102.526,9.48958 103.01,9.73438 103.625,9.73438 C104.24,9.73438 104.724,9.48958 105.078,9 C105.432,8.5 105.609,7.82812 105.609,6.98438 C105.609,6.16146 105.432,5.50521 105.078,5.01562 M103.625,3.84375 C104.385,3.84375 104.99,4.13021 105.438,4.70312 C105.885,5.27604 106.109,6.03646 106.109,6.98438 C106.109,7.97396 105.885,8.75521 105.438,9.32812 C104.99,9.90104 104.385,10.1875 103.625,10.1875 C102.844,10.1875 102.229,9.90104 101.781,9.32812 C101.344,8.75521 101.125,7.97396 101.125,6.98438 C101.125,6.02604 101.349,5.26302 101.797,4.69531 C102.245,4.1276 102.854,3.84375 103.625,3.84375 M108.734,2.28125 L108.734,3.98438 L110.766,3.98438 L110.766,4.40625 L108.734,4.40625 L108.734,8.01562 C108.734,8.47396 108.792,8.79688 108.906,8.98438 C109.156,9.38021 109.516,9.57812 109.984,9.57812 L110.766,9.57812 L110.766,10 L110,10 C109.51,10 109.094,9.85677 108.75,9.57031 C108.406,9.28385 108.234,8.76562 108.234,8.01562 L108.234,4.40625 L107.516,4.40625 L107.516,3.98438 L108.234,3.98438 L108.234,2.28125 L108.734,2.28125 M116.531,2.28125 L116.531,3.98438 L118.562,3.98438 L118.562,4.40625 L116.531,4.40625 L116.531,8.01562 C116.531,8.47396 116.589,8.79688 116.703,8.98438 C116.953,9.38021 117.312,9.57812 117.781,9.57812 L118.562,9.57812 L118.562,10 L117.797,10 C117.307,10 116.891,9.85677 116.547,9.57031 C116.203,9.28385 116.031,8.76562 116.031,8.01562 L116.031,4.40625 L115.312,4.40625 L115.312,3.98438 L116.031,3.98438 L116.031,2.28125 L116.531,2.28125 M123.594,4.40625 C123.51,4.36458 123.401,4.33333 123.266,4.3125 C123.141,4.29167 122.99,4.28125 122.812,4.28125 C122.198,4.28125 121.693,4.50521 121.297,4.95312 C120.974,5.31771 120.812,5.94271 120.812,6.82812 L120.812,10 L120.328,10 L120.328,3.98438 L120.812,3.98438 L120.812,5.10938 C120.979,4.78646 121.208,4.51562 121.5,4.29688 C121.896,3.99479 122.365,3.84375 122.906,3.84375 C123.052,3.84375 123.177,3.84896 123.281,3.85938 C123.385,3.85938 123.49,3.86979 123.594,3.89062 L123.594,4.40625 M129.531,6.75 L129.531,7.0625 L124.969,7.0625 C124.969,8.02083 125.156,8.69792 125.531,9.09375 C125.948,9.52083 126.562,9.73438 127.375,9.73438 C127.594,9.73438 127.88,9.6875 128.234,9.59375 C128.589,9.5 128.943,9.35938 129.297,9.17188 L129.297,9.6875 C128.943,9.84375 128.581,9.96094 128.211,10.0391 C127.841,10.1172 127.547,10.1562 127.328,10.1562 C126.401,10.1562 125.703,9.90625 125.234,9.40625 C124.724,8.875 124.469,8.09375 124.469,7.0625 C124.469,5.98958 124.698,5.1875 125.156,4.65625 C125.635,4.11458 126.302,3.84375 127.156,3.84375 C127.938,3.84375 128.531,4.10417 128.938,4.625 C129.333,5.16667 129.531,5.875 129.531,6.75 M129.031,6.64062 C129.031,5.79688 128.839,5.18229 128.453,4.79688 C128.141,4.45312 127.708,4.28125 127.156,4.28125 C126.562,4.28125 126.062,4.45833 125.656,4.8125 C125.281,5.14583 125.057,5.75521 124.984,6.64062 L129.031,6.64062 M136.297,6.75 L136.297,7.0625 L131.734,7.0625 C131.734,8.02083 131.922,8.69792 132.297,9.09375 C132.714,9.52083 133.328,9.73438 134.141,9.73438 C134.359,9.73438 134.646,9.6875 135,9.59375 C135.354,9.5 135.708,9.35938 136.062,9.17188 L136.062,9.6875 C135.708,9.84375 135.346,9.96094 134.977,10.0391 C134.607,10.1172 134.312,10.1562 134.094,10.1562 C133.167,10.1562 132.469,9.90625 132,9.40625 C131.49,8.875 131.234,8.09375 131.234,7.0625 C131.234,5.98958 131.464,5.1875 131.922,4.65625 C132.401,4.11458 133.068,3.84375 133.922,3.84375 C134.703,3.84375 135.297,4.10417 135.703,4.625 C136.099,5.16667 136.297,5.875 136.297,6.75 M135.797,6.64062 C135.797,5.79688 135.604,5.18229 135.219,4.79688 C134.906,4.45312 134.474,4.28125 133.922,4.28125 C133.328,4.28125 132.828,4.45833 132.422,4.8125 C132.047,5.14583 131.823,5.75521 131.75,6.64062 L135.797,6.64062 M138.297,4.34375 L138.297,3.84375 L145.172,6.34375 L145.172,6.79688 L138.297,9.29688 L138.297,8.75 L144.484,6.5625 L138.297,4.34375"/>
</g>

<g fill="none" stroke="#000000" stroke-opacity="1" stroke-width="1" stroke-linecap="square" stroke-linejoin="bevel" transform="matrix(2,0,0,2,174.669,23)"
font-family="sans" font-size="11" font-weight="100" font-style="normal" 
>
</g>

<g fill="none" stroke="#000000" stroke-opacity="1" stroke-width="1" stroke-linecap="square" stroke-linejoin="bevel" transform="matrix(2,0,0,2,174.669,23)"
font-family="Cantarell" font-size="11" font-weight="400" font-style="normal" 
>
</g>

<g fill="none" stroke="#000000" stroke-opacity="1" stroke-width="1" stroke-linecap="square" stroke-linejoin="bevel" transform="matrix(2,0,0,2,-0.0032,360)"
font-family="Cantarell" font-size="11" font-weight="400" font-style="normal" 
>
</g>

<g fill="none" stroke="#000000" stroke-opacity="1" stroke-width="1" stroke-linecap="square" stroke-linejoin="bevel" transform="matrix(2,0,0,2,-0.0032,360)"
font-family="Cantarell" font-size="11" font-weight="400" font-style="normal" 
>
</g>

<g fill="none" stroke="#000000" stroke-opacity="1" stroke-width="1" stroke-linecap="square" stroke-linejoin="bevel" transform="matrix(2,0,0,2,-0.0032,360)"
font-family="Cantarell" font-size="11" font-weight="400" font-style="normal" 
>
</g>

<g fill="none" stroke="#000000" stroke-opacity="1" stroke-width="1" stroke-linecap="square" stroke-linejoin="round" transform="matrix(2,0,0,2,-0.0032,360)"
font-family="Cantarell" font-size="11" font-weight="400" font-style="normal" 
>
<path vector-effect="none" fill-rule="evenodd" d="M179.53,-71.697 C189.04,-63.05 200.71,-52.449 211.07,-43.027 "/>
</g>

<g fill="none" stroke="#000000" stroke-opacity="1" stroke-width="1" stroke-linecap="square" stroke-linejoin="bevel" transform="matrix(2,0,0,2,-0.0032,360)"
font-family="Cantarell" font-size="11" font-weight="400" font-style="normal" 
>
</g>

<g fill="none" stroke="#000000" stroke-opacity="1" stroke-width="1" stroke-linecap="square" stroke-linejoin="bevel" transform="matrix(2,0,0,2,-0.0032,360)"
font-family="Cantarell" font-size="11" font-weight="400" font-style="normal" 
>
</g>

<g fill="#000000" fill-opacity="1" stroke="#000000" stroke-opacity="1" stroke-width="1" stroke-linecap="square" stroke-linejoin="round" transform="matrix(2,0,0,2,-0.0032,360)"
font-family="Cantarell" font-size="11" font-weight="400" font-style="normal" 
>
<path vector-effect="none" fill-rule="evenodd" d="M211.07,-43.027 L208.647,-40.36 L218.69,-36.104 L213.493,-45.694 L211.07,-43.027"/>
</g>

<g fill="none" stroke="#000000" stroke-opacity="1" stroke-width="1" stroke-linecap="square" stroke-linejoin="bevel" transform="matrix(2,0,0,2,-0.0032,360)"
font-family="Cantarell" font-size="11" font-weight="400" font-style="normal" 
>
</g>

<g fill="none" stroke="#000000" stroke-opacity="1" stroke-width="1" stroke-linecap="square" stroke-linejoin="bevel" transform="matrix(2,0,0,2,-0.0032,360)"
font-family="Cantarell" font-size="11" font-weight="400" font-style="normal" 
>
</g>

<g fill="none" stroke="#000000" stroke-opacity="1" stroke-width="1" stroke-linecap="square" stroke-linejoin="bevel" transform="matrix(2,0,0,2,-0.0032,360)"
font-family="Cantarell" font-size="11" font-weight="400" font-style="normal" 
>
</g>

<g fill="none" stroke="#000000" stroke-opacity="1" stroke-width="1" stroke-linecap="square" stroke-linejoin="bevel" transform="matrix(2,0,0,2,-0.0032,360)"
font-family="Cantarell" font-size="11" font-weight="400" font-style="normal" 
>
</g>

<g fill="none" stroke="#000000" stroke-opacity="1" stroke-width="1" stroke-linecap="square" stroke-linejoin="round" transform="matrix(2,0,0,2,-0.0032,360)"
font-family="Cantarell" font-size="11" font-weight="400" font-style="normal" 
>
<path vector-effect="none" fill-rule="evenodd" d="M160.5,-143.7 C160.5,-135.98 160.5,-126.71 160.5,-118.11 "/>
</g>

<g fill="none" stroke="#000000" stroke-opacity="1" stroke-width="1" stroke-linecap="square" stroke-linejoin="bevel" transform="matrix(2,0,0,2,-0.0032,360)"
font-family="Cantarell" font-size="11" font-weight="400" font-style="normal" 
>
</g>

<g fill="none" stroke="#000000" stroke-opacity="1" stroke-width="1" stroke-linecap="square" stroke-linejoin="bevel" transform="matrix(2,0,0,2,-0.0032,360)"
font-family="Cantarell" font-size="11" font-weight="400" font-style="normal" 
>
</g>

<g fill="#000000" fill-opacity="1" stroke="#000000" stroke-opacity="1" stroke-width="1" stroke-linecap="square" stroke-linejoin="round" transform="matrix(2,0,0,2,-0.0032,360)"
font-family="Cantarell" font-size="11" font-weight="400" font-style="normal" 
>
<path vector-effect="none" fill-rule="evenodd" d="M160.5,-118.11 L156.996,-118.11 L160.5,-108.1 L164.004,-118.11 L160.5,-118.11"/>
</g>

<g fill="none" stroke="#000000" stroke-opacity="1" stroke-width="1" stroke-linecap="square" stroke-linejoin="bevel" transform="matrix(2,0,0,2,-0.0032,360)"
font-family="Cantarell" font-size="11" font-weight="400" font-style="normal" 
>
</g>

<g fill="none" stroke="#000000" stroke-opacity="1" stroke-width="1" stroke-linecap="square" stroke-linejoin="bevel" transform="matrix(2,0,0,2,-0.0032,360)"
font-family="Cantarell" font-size="11" font-weight="400" font-style="normal" 
>
</g>

<g fill="none" stroke="#000000" stroke-opacity="1" stroke-width="1" stroke-linecap="square" stroke-linejoin="bevel" transform="matrix(2,0,0,2,-0.0032,360)"
font-family="Cantarell" font-size="11" font-weight="400" font-style="normal" 
>
</g>

<g fill="none" stroke="#000000" stroke-opacity="1" stroke-width="1" stroke-linecap="square" stroke-linejoin="bevel" transform="matrix(2,0,0,2,-0.0032,360)"
font-family="Cantarell" font-size="11" font-weight="400" font-style="normal" 
>
</g>

<g fill="none" stroke="#ff0000" stroke-opacity="1" stroke-dasharray="8,4" stroke-dashoffset="0" stroke-width="2" stroke-linecap="square" stroke-linejoin="round" transform="matrix(2,0,0,2,-0.0032,360)"
font-family="Cantarell" font-size="11" font-weight="400" font-style="normal" 
>
<path vector-effect="none" fill-rule="evenodd" d="M141.47,-71.697 C131.96,-63.05 120.29,-52.449 109.93,-43.027 "/>
</g>

<g fill="none" stroke="#000000" stroke-opacity="1" stroke-width="1" stroke-linecap="square" stroke-linejoin="bevel" transform="matrix(2,0,0,2,-0.0032,360)"
font-family="Cantarell" font-size="11" font-weight="400" font-style="normal" 
>
</g>

<g fill="none" stroke="#000000" stroke-opacity="1" stroke-width="1" stroke-linecap="square" stroke-linejoin="bevel" transform="matrix(2,0,0,2,-0.0032,360)"
font-family="Cantarell" font-size="11" font-weight="400" font-style="normal" 
>
</g>

<g fill="#000000" fill-opacity="0" stroke="#ff0000" stroke-opacity="1" stroke-dasharray="8,4" stroke-dashoffset="0" stroke-width="2" stroke-linecap="square" stroke-linejoin="round" transform="matrix(2,0,0,2,-0.0032,360)"
font-family="Cantarell" font-size="11" font-weight="400" font-style="normal" 
>
<path vector-effect="none" fill-rule="evenodd" d="M109.93,-43.027 L107.507,-45.694 L102.31,-36.104 L112.353,-40.36 L109.93,-43.027"/>
</g>

<g fill="none" stroke="#000000" stroke-opacity="1" stroke-width="1" stroke-linecap="square" stroke-linejoin="bevel" transform="matrix(2,0,0,2,-0.0032,360)"
font-family="Cantarell" font-size="11" font-weight="400" font-style="normal" 
>
</g>

<g fill="none" stroke="#000000" stroke-opacity="1" stroke-width="1" stroke-linecap="square" stroke-linejoin="bevel" transform="matrix(1,0,0,1,0,0)"
font-family="Cantarell" font-size="11" font-weight="400" font-style="normal" 
>
</g>
</g>
</svg>
