<?xml version="1.0" encoding="UTF-8" standalone="no"?>
<svg
   xmlns:dc="http://purl.org/dc/elements/1.1/"
   xmlns:cc="http://creativecommons.org/ns#"
   xmlns:rdf="http://www.w3.org/1999/02/22-rdf-syntax-ns#"
   xmlns:svg="http://www.w3.org/2000/svg"
   xmlns="http://www.w3.org/2000/svg"
   viewBox="0 0 177.86667 88.865334"
   height="88.865334"
   width="177.86667"
   xml:space="preserve"
   id="svg4983"
   version="1.1"><metadata
     id="metadata4989"><rdf:RDF><cc:Work
         rdf:about=""><dc:format>image/svg+xml</dc:format><dc:type
           rdf:resource="http://purl.org/dc/dcmitype/StillImage" /><dc:title></dc:title></cc:Work></rdf:RDF></metadata><defs
     id="defs4987" /><g
     transform="matrix(1.3333333,0,0,-1.3333333,0,88.865333)"
     id="g4991"><g
       transform="translate(52.923,26.311)"
       id="g4993"><g
         id="g4995"><g
           id="g4997"><g
             id="g4999"><path
               id="path5001"
               style="fill:none;stroke:#000000;stroke-width:0.3985;stroke-linecap:butt;stroke-linejoin:miter;stroke-miterlimit:10;stroke-dasharray:none;stroke-opacity:1"
               d="M 12.45346,0 C 12.45346,6.87794 6.87794,12.45346 0,12.45346 -6.87794,12.45346 -12.45346,6.87794 -12.45346,0 c 0,-6.87794 5.57552,-12.45346 12.45346,-12.45346 6.87794,0 12.45346,5.57552 12.45346,12.45346 z" /><g
               transform="translate(-4.57,-1.398)"
               id="g5003"><g
                 id="g5005"><g
                   transform="translate(-48.353,-24.913)"
                   id="g5007"><text
   id="text5011"
   style="font-variant:normal;font-weight:normal;font-size:9.96259975px;font-family:CMMI10;-inkscape-font-specification:CMMI10;writing-mode:lr-tb;fill:#000000;fill-opacity:1;fill-rule:nonzero;stroke:none"
   transform="matrix(1,0,0,-1,48.353,24.913)"><tspan
     id="tspan5009"
     y="0"
     x="0">s</tspan></text>

<text
   id="text5015"
   style="font-variant:normal;font-weight:normal;font-size:6.97380018px;font-family:CMR7;-inkscape-font-specification:CMR7;writing-mode:lr-tb;fill:#000000;fill-opacity:1;fill-rule:nonzero;stroke:none"
   transform="matrix(1,0,0,-1,53.023,23.419)"><tspan
     id="tspan5013"
     y="0"
     x="0">1</tspan></text>

<g
   transform="translate(48.353,24.913)"
   id="g5017" /></g></g><g
                 transform="translate(4.57,1.398)"
                 id="g5019" /></g></g><g
             id="g5021"><path
               id="path5023"
               style="fill:none;stroke:#000000;stroke-width:0.3985;stroke-linecap:butt;stroke-linejoin:miter;stroke-miterlimit:10;stroke-dasharray:none;stroke-opacity:1"
               d="M -25.52126,0 H -13.111" /><g
               transform="translate(-13.111)"
               id="g5025"><g
                 id="g5027"><path
                   id="path5029"
                   style="fill:none;stroke:#000000;stroke-width:0.31878999;stroke-linecap:round;stroke-linejoin:round;stroke-miterlimit:10;stroke-dasharray:none;stroke-opacity:1"
                   d="M -1.19551,1.59401 C -1.09587,0.99626 0,0.09961 0.29886,0 0,-0.09961 -1.09587,-0.99626 -1.19551,-1.59401" /></g></g><g
               id="g5031"><g
                 transform="translate(-49.603,-3.064)"
                 id="g5033"><g
                   id="g5035"><g
                     transform="translate(-3.32,-23.247)"
                     id="g5037"><text
   id="text5041"
   style="font-variant:normal;font-weight:normal;font-size:9.96259975px;font-family:CMR10;-inkscape-font-specification:CMR10;writing-mode:lr-tb;fill:#000000;fill-opacity:1;fill-rule:nonzero;stroke:none"
   transform="matrix(1,0,0,-1,3.32,23.247)"><tspan
     id="tspan5039"
     y="0"
     x="0 3.9292495 7.8037047 12.785005 16.687355">start</tspan></text>

<g
   transform="translate(3.32,23.247)"
   id="g5043" /></g></g><g
                   transform="translate(49.603,3.064)"
                   id="g5045" /></g></g></g><g
             id="g5047"><path
               id="path5049"
               style="fill:none;stroke:#000000;stroke-width:0.3985;stroke-linecap:butt;stroke-linejoin:miter;stroke-miterlimit:10;stroke-dasharray:none;stroke-opacity:1"
               d="m 80.27914,0 c 0,6.87794 -5.57551,12.45346 -12.45347,12.45346 C 60.94772,12.45346 55.3722,6.87794 55.3722,0 c 0,-6.87794 5.57552,-12.45346 12.45347,-12.45346 6.87796,0 12.45347,5.57552 12.45347,12.45346 z" /><g
               transform="translate(63.255,-1.398)"
               id="g5051"><g
                 id="g5053"><g
                   transform="translate(-116.178,-24.913)"
                   id="g5055"><text
   id="text5059"
   style="font-variant:normal;font-weight:normal;font-size:9.96259975px;font-family:CMMI10;-inkscape-font-specification:CMMI10;writing-mode:lr-tb;fill:#000000;fill-opacity:1;fill-rule:nonzero;stroke:none"
   transform="matrix(1,0,0,-1,116.178,24.913)"><tspan
     id="tspan5057"
     y="0"
     x="0">s</tspan></text>

<text
   id="text5063"
   style="font-variant:normal;font-weight:normal;font-size:6.97380018px;font-family:CMR7;-inkscape-font-specification:CMR7;writing-mode:lr-tb;fill:#000000;fill-opacity:1;fill-rule:nonzero;stroke:none"
   transform="matrix(1,0,0,-1,120.848,23.419)"><tspan
     id="tspan5061"
     y="0"
     x="0">2</tspan></text>

<g
   transform="translate(116.178,24.913)"
   id="g5065" /></g></g><g
                 transform="translate(-63.255,1.398)"
                 id="g5067" /></g></g><g
             id="g5069"><path
               id="path5071"
               style="fill:none;stroke:#000000;stroke-width:0.3985;stroke-linecap:butt;stroke-linejoin:miter;stroke-miterlimit:10;stroke-dasharray:none;stroke-opacity:1"
               d="M -3.28094,12.24553 C -8.58037,32.02182 8.58037,32.02182 3.65851,13.65327" /><g
               transform="matrix(-0.25932,-0.96782,0.96782,-0.25932,3.65852,13.65329)"
               id="g5073"><g
                 id="g5075"><path
                   id="path5077"
                   style="fill:none;stroke:#000000;stroke-width:0.31878999;stroke-linecap:round;stroke-linejoin:round;stroke-miterlimit:10;stroke-dasharray:none;stroke-opacity:1"
                   d="M -1.19551,1.59401 C -1.09587,0.99626 0,0.09961 0.29886,0 0,-0.09961 -1.09587,-0.99626 -1.19551,-1.59401" /></g></g><g
               id="g5079"><g
                 transform="translate(-2.491,30.597)"
                 id="g5081"><g
                   id="g5083"><g
                     transform="translate(-50.432,-56.908)"
                     id="g5085"><text
   id="text5089"
   style="font-variant:normal;font-weight:normal;font-size:9.96259975px;font-family:CMR10;-inkscape-font-specification:CMR10;writing-mode:lr-tb;fill:#000000;fill-opacity:1;fill-rule:nonzero;stroke:none"
   transform="matrix(1,0,0,-1,50.432,56.908)"><tspan
     id="tspan5087"
     y="0"
     x="0">0</tspan></text>

<g
   transform="translate(50.432,56.908)"
   id="g5091" /></g></g><g
                   transform="translate(2.491,-30.597)"
                   id="g5093" /></g></g></g><g
             id="g5095"><path
               id="path5097"
               style="fill:none;stroke:#000000;stroke-width:0.3985;stroke-linecap:butt;stroke-linejoin:miter;stroke-miterlimit:10;stroke-dasharray:none;stroke-opacity:1"
               d="m 8.9474,8.94682 c 13.7685,13.7685 36.16237,13.7685 49.6068,0.32405" /><g
               transform="matrix(0.70714,-0.7071,0.7071,0.70714,58.55418,9.27087)"
               id="g5099"><g
                 id="g5101"><path
                   id="path5103"
                   style="fill:none;stroke:#000000;stroke-width:0.31878999;stroke-linecap:round;stroke-linejoin:round;stroke-miterlimit:10;stroke-dasharray:none;stroke-opacity:1"
                   d="M -1.19551,1.59401 C -1.09587,0.99626 0,0.09961 0.29886,0 0,-0.09961 -1.09587,-0.99626 -1.19551,-1.59401" /></g></g><g
               id="g5105"><g
                 transform="translate(31.422,22.792)"
                 id="g5107"><g
                   id="g5109"><g
                     transform="translate(-84.345,-49.103)"
                     id="g5111"><text
   id="text5115"
   style="font-variant:normal;font-weight:normal;font-size:9.96259975px;font-family:CMR10;-inkscape-font-specification:CMR10;writing-mode:lr-tb;fill:#000000;fill-opacity:1;fill-rule:nonzero;stroke:none"
   transform="matrix(1,0,0,-1,84.345,49.103)"><tspan
     id="tspan5113"
     y="0"
     x="0">1</tspan></text>

<g
   transform="translate(84.345,49.103)"
   id="g5117" /></g></g><g
                   transform="translate(-31.422,-22.792)"
                   id="g5119" /></g></g></g><g
             id="g5121"><path
               id="path5123"
               style="fill:none;stroke:#000000;stroke-width:0.3985;stroke-linecap:butt;stroke-linejoin:miter;stroke-miterlimit:10;stroke-dasharray:none;stroke-opacity:1"
               d="m 64.54472,12.24553 c -5.29942,19.77629 11.86133,19.77629 6.93947,1.40774" /><g
               transform="matrix(-0.25932,-0.96782,0.96782,-0.25932,71.4842,13.65329)"
               id="g5125"><g
                 id="g5127"><path
                   id="path5129"
                   style="fill:none;stroke:#000000;stroke-width:0.31878999;stroke-linecap:round;stroke-linejoin:round;stroke-miterlimit:10;stroke-dasharray:none;stroke-opacity:1"
                   d="M -1.19551,1.59401 C -1.09587,0.99626 0,0.09961 0.29886,0 0,-0.09961 -1.09587,-0.99626 -1.19551,-1.59401" /></g></g><g
               id="g5131"><g
                 transform="translate(65.334,30.597)"
                 id="g5133"><g
                   id="g5135"><g
                     transform="translate(-118.257,-56.908)"
                     id="g5137"><text
   id="text5141"
   style="font-variant:normal;font-weight:normal;font-size:9.96259975px;font-family:CMR10;-inkscape-font-specification:CMR10;writing-mode:lr-tb;fill:#000000;fill-opacity:1;fill-rule:nonzero;stroke:none"
   transform="matrix(1,0,0,-1,118.257,56.908)"><tspan
     id="tspan5139"
     y="0"
     x="0">1</tspan></text>

<g
   transform="translate(118.257,56.908)"
   id="g5143" /></g></g><g
                   transform="translate(-65.334,-30.597)"
                   id="g5145" /></g></g></g><g
             id="g5147"><path
               id="path5149"
               style="fill:none;stroke:#000000;stroke-width:0.3985;stroke-linecap:butt;stroke-linejoin:miter;stroke-miterlimit:10;stroke-dasharray:none;stroke-opacity:1"
               d="M 56.83331,-6.34642 C 41.35172,-15.2847 26.47395,-15.2847 11.39049,-6.57628" /><g
               transform="matrix(-0.86877,0.50159,-0.50159,-0.86877,11.39049,-6.5763)"
               id="g5151"><g
                 id="g5153"><path
                   id="path5155"
                   style="fill:none;stroke:#000000;stroke-width:0.31878999;stroke-linecap:round;stroke-linejoin:round;stroke-miterlimit:10;stroke-dasharray:none;stroke-opacity:1"
                   d="M -1.19551,1.59401 C -1.09587,0.99626 0,0.09961 0.29886,0 0,-0.09961 -1.09587,-0.99626 -1.19551,-1.59401" /></g></g><g
               id="g5157"><g
                 transform="translate(31.422,-22.99)"
                 id="g5159"><g
                   id="g5161"><g
                     transform="translate(-84.345,-3.321)"
                     id="g5163"><text
   id="text5167"
   style="font-variant:normal;font-weight:normal;font-size:9.96259975px;font-family:CMR10;-inkscape-font-specification:CMR10;writing-mode:lr-tb;fill:#000000;fill-opacity:1;fill-rule:nonzero;stroke:none"
   transform="matrix(1,0,0,-1,84.345,3.321)"><tspan
     id="tspan5165"
     y="0"
     x="0">0</tspan></text>

<g
   transform="translate(84.345,3.321)"
   id="g5169" /></g></g><g
                   transform="translate(-31.422,22.99)"
                   id="g5171" /></g></g></g></g></g></g></g></svg>